<svg width="138" height="24" viewBox="0 0 138 24" fill="none" xmlns="http://www.w3.org/2000/svg">
<path d="M13.8342 0.674246C15.067 0.794607 15.9554 2.05504 16.0754 3.85427C16.0856 4.00654 16.0893 4.39438 16.0807 4.39438C16.0781 4.39438 16.0106 4.35526 15.9307 4.30746C15.5019 4.05084 14.8975 3.75814 14.5579 3.64265C14.2361 3.53323 13.8568 3.63156 13.4177 3.93828C13.0421 4.20054 12.6782 4.55152 12.0063 5.29972C11.4286 5.94291 11.2137 6.16916 11.0073 6.35145C10.5974 6.71345 10.3396 6.77703 10.2297 6.54326C10.1351 6.34208 10.1302 5.5141 10.2198 4.87464C10.5617 2.43597 12.2138 0.516031 13.8342 0.674246ZM6.94283 1.79934C7.79206 1.93637 8.64597 2.4271 9.40867 3.21638L9.45545 3.26479L9.26667 3.31194C8.60941 3.47607 7.8307 3.76827 7.65287 3.91754C7.40261 4.12767 7.25032 4.49988 7.18346 5.06499C7.13698 5.45809 7.13959 6.01067 7.19252 6.9594C7.25305 8.04529 7.24091 8.45598 7.14044 8.72285C7.03674 8.9982 6.86679 9.01755 6.58906 8.78566C5.52533 7.89741 4.7129 6.53197 4.45553 5.19978C4.12108 3.4685 4.7664 2.0975 6.04667 1.81942C6.29502 1.76548 6.67943 1.75688 6.94283 1.79934ZM19.3419 4.86024C21.5585 5.09509 22.1654 7.18914 20.6123 9.24392C20.4484 9.46083 20.0329 9.92581 20.0031 9.92581C19.9996 9.92581 19.9755 9.841 19.9496 9.73734C19.7911 9.10409 19.5104 8.34403 19.3621 8.14696C19.1577 7.87518 18.736 7.70529 18.1162 7.64501C17.8005 7.6143 17.0486 7.61192 16.7028 7.64056C16.5869 7.65016 15.6779 7.69285 15.4831 7.69784C14.5929 7.72069 14.2009 7.56389 14.3517 7.24523C14.3879 7.16879 14.4346 7.10779 14.5898 6.93402C15.8371 5.53783 17.7712 4.69381 19.3419 4.86024ZM3.93288 7.13366C3.94667 7.13942 3.93104 7.17102 3.83494 7.33161C3.56755 7.77858 3.28867 8.35275 3.16942 8.70204C3.06338 9.01245 3.15651 9.3938 3.43938 9.80771C3.71365 10.209 4.095 10.6036 4.92529 11.345C5.75117 12.0825 6.03519 12.3816 6.16036 12.6456C6.26471 12.8657 6.2061 13.0097 5.99033 13.0633C5.73073 13.1277 4.91039 13.1173 4.3915 13.0429C2.60172 12.7863 1.04334 11.8283 0.443873 10.6161C-0.365294 8.97993 0.826296 7.44426 3.1183 7.16948C3.38316 7.13773 3.88948 7.11546 3.93288 7.13366ZM17.9549 10.641C18.896 10.7158 19.8642 10.9993 20.5955 11.414C20.6171 11.4263 20.6545 11.4473 20.6788 11.4608C21.2403 11.7736 21.782 12.2504 22.1101 12.7209C22.6343 13.4726 22.7335 14.2801 22.3877 14.9824C21.9472 15.8772 20.8299 16.4766 19.4044 16.583C19.264 16.5935 18.8508 16.5996 18.8426 16.5914C18.8399 16.5887 18.8612 16.5495 18.89 16.5041C19.1667 16.0672 19.5688 15.2403 19.6415 14.9587C19.6656 14.8654 19.6678 14.6713 19.6459 14.5663C19.5311 14.0146 19.0794 13.4638 17.8238 12.3442C16.7464 11.3835 16.4499 10.989 16.6358 10.7636C16.7091 10.6747 16.8051 10.6535 17.2558 10.6266C17.3531 10.6208 17.8227 10.6305 17.9549 10.641ZM2.7951 13.7992C2.7951 13.8075 2.81465 13.892 2.83854 13.9871C3.01494 14.6889 3.29159 15.4238 3.4496 15.61C3.78624 16.0069 4.52816 16.1581 5.86551 16.1023C6.10052 16.0926 6.62348 16.0654 6.68819 16.0596C7.00736 16.031 7.76679 16.0306 7.9715 16.0588C8.32492 16.1076 8.48516 16.2102 8.47368 16.3804C8.46715 16.4773 8.44214 16.5156 8.21662 16.774C7.58097 17.5025 6.6976 18.1258 5.78224 18.4918C5.14241 18.7476 4.5605 18.8746 3.9557 18.8904C2.11483 18.9386 1.01503 17.778 1.35206 16.1427C1.50561 15.3975 1.95382 14.6178 2.62238 13.9328C2.76833 13.7832 2.7951 13.7625 2.7951 13.7992ZM16.0218 14.8203C16.125 14.8686 16.4789 15.1848 16.7204 15.4443C17.522 16.3061 18.0876 17.3734 18.3171 18.458C18.3905 18.8047 18.4115 19.0178 18.4112 19.4124C18.4109 19.815 18.3916 19.9883 18.3128 20.2916C17.8031 22.2553 15.6587 22.5287 13.7287 20.876C13.546 20.7195 13.2956 20.4725 13.3137 20.4666C13.3218 20.464 13.4122 20.4418 13.5145 20.4171C14.1119 20.2735 14.9144 19.9784 15.1127 19.8294C15.3287 19.667 15.4834 19.3674 15.5654 18.9523C15.6591 18.4785 15.6673 17.942 15.6002 16.6908C15.5566 15.879 15.558 15.4929 15.6057 15.2186C15.6696 14.8511 15.8068 14.7196 16.0218 14.8203ZM12.4455 17.0665C12.5407 17.1062 12.5806 17.1811 12.5976 17.3516C12.716 18.5404 12.4856 19.7852 11.9477 20.8626C10.9304 22.9002 9.10867 23.6552 7.82916 22.5694C7.09677 21.9479 6.65462 20.7922 6.65401 19.4981L6.65389 19.2949L6.7347 19.3455C7.15918 19.6116 7.69435 19.8814 8.14257 20.0553C8.44556 20.1729 8.69652 20.1548 9.03976 19.9905C9.52051 19.7605 9.94138 19.3784 10.9538 18.2529C11.4927 17.6538 11.7308 17.414 11.9527 17.2471C12.1709 17.0829 12.3382 17.0216 12.4455 17.0665Z" fill="url(#paint0_linear_272_4334)"/>
<path d="M13.8342 0.674246C15.067 0.794607 15.9554 2.05504 16.0754 3.85427C16.0856 4.00654 16.0893 4.39438 16.0807 4.39438C16.0781 4.39438 16.0106 4.35526 15.9307 4.30746C15.5019 4.05084 14.8975 3.75814 14.5579 3.64265C14.2361 3.53323 13.8568 3.63156 13.4177 3.93828C13.0421 4.20054 12.6782 4.55152 12.0063 5.29972C11.4286 5.94291 11.2137 6.16916 11.0073 6.35145C10.5974 6.71345 10.3396 6.77703 10.2297 6.54326C10.1351 6.34208 10.1302 5.5141 10.2198 4.87464C10.5617 2.43597 12.2138 0.516031 13.8342 0.674246ZM6.94283 1.79934C7.79206 1.93637 8.64597 2.4271 9.40867 3.21638L9.45545 3.26479L9.26667 3.31194C8.60941 3.47607 7.8307 3.76827 7.65287 3.91754C7.40261 4.12767 7.25032 4.49988 7.18346 5.06499C7.13698 5.45809 7.13959 6.01067 7.19252 6.9594C7.25305 8.04529 7.24091 8.45598 7.14044 8.72285C7.03674 8.9982 6.86679 9.01755 6.58906 8.78566C5.52533 7.89741 4.7129 6.53197 4.45553 5.19978C4.12108 3.4685 4.7664 2.0975 6.04667 1.81942C6.29502 1.76548 6.67943 1.75688 6.94283 1.79934ZM19.3419 4.86024C21.5585 5.09509 22.1654 7.18914 20.6123 9.24392C20.4484 9.46083 20.0329 9.92581 20.0031 9.92581C19.9996 9.92581 19.9755 9.841 19.9496 9.73734C19.7911 9.10409 19.5104 8.34403 19.3621 8.14696C19.1577 7.87518 18.736 7.70529 18.1162 7.64501C17.8005 7.6143 17.0486 7.61192 16.7028 7.64056C16.5869 7.65016 15.6779 7.69285 15.4831 7.69784C14.5929 7.72069 14.2009 7.56389 14.3517 7.24523C14.3879 7.16879 14.4346 7.10779 14.5898 6.93402C15.8371 5.53783 17.7712 4.69381 19.3419 4.86024ZM3.93288 7.13366C3.94667 7.13942 3.93104 7.17102 3.83494 7.33161C3.56755 7.77858 3.28867 8.35275 3.16942 8.70204C3.06338 9.01245 3.15651 9.3938 3.43938 9.80771C3.71365 10.209 4.095 10.6036 4.92529 11.345C5.75117 12.0825 6.03519 12.3816 6.16036 12.6456C6.26471 12.8657 6.2061 13.0097 5.99033 13.0633C5.73073 13.1277 4.91039 13.1173 4.3915 13.0429C2.60172 12.7863 1.04334 11.8283 0.443873 10.6161C-0.365294 8.97993 0.826296 7.44426 3.1183 7.16948C3.38316 7.13773 3.88948 7.11546 3.93288 7.13366ZM17.9549 10.641C18.896 10.7158 19.8642 10.9993 20.5955 11.414C20.6171 11.4263 20.6545 11.4473 20.6788 11.4608C21.2403 11.7736 21.782 12.2504 22.1101 12.7209C22.6343 13.4726 22.7335 14.2801 22.3877 14.9824C21.9472 15.8772 20.8299 16.4766 19.4044 16.583C19.264 16.5935 18.8508 16.5996 18.8426 16.5914C18.8399 16.5887 18.8612 16.5495 18.89 16.5041C19.1667 16.0672 19.5688 15.2403 19.6415 14.9587C19.6656 14.8654 19.6678 14.6713 19.6459 14.5663C19.5311 14.0146 19.0794 13.4638 17.8238 12.3442C16.7464 11.3835 16.4499 10.989 16.6358 10.7636C16.7091 10.6747 16.8051 10.6535 17.2558 10.6266C17.3531 10.6208 17.8227 10.6305 17.9549 10.641ZM2.7951 13.7992C2.7951 13.8075 2.81465 13.892 2.83854 13.9871C3.01494 14.6889 3.29159 15.4238 3.4496 15.61C3.78624 16.0069 4.52816 16.1581 5.86551 16.1023C6.10052 16.0926 6.62348 16.0654 6.68819 16.0596C7.00736 16.031 7.76679 16.0306 7.9715 16.0588C8.32492 16.1076 8.48516 16.2102 8.47368 16.3804C8.46715 16.4773 8.44214 16.5156 8.21662 16.774C7.58097 17.5025 6.6976 18.1258 5.78224 18.4918C5.14241 18.7476 4.5605 18.8746 3.9557 18.8904C2.11483 18.9386 1.01503 17.778 1.35206 16.1427C1.50561 15.3975 1.95382 14.6178 2.62238 13.9328C2.76833 13.7832 2.7951 13.7625 2.7951 13.7992ZM16.0218 14.8203C16.125 14.8686 16.4789 15.1848 16.7204 15.4443C17.522 16.3061 18.0876 17.3734 18.3171 18.458C18.3905 18.8047 18.4115 19.0178 18.4112 19.4124C18.4109 19.815 18.3916 19.9883 18.3128 20.2916C17.8031 22.2553 15.6587 22.5287 13.7287 20.876C13.546 20.7195 13.2956 20.4725 13.3137 20.4666C13.3218 20.464 13.4122 20.4418 13.5145 20.4171C14.1119 20.2735 14.9144 19.9784 15.1127 19.8294C15.3287 19.667 15.4834 19.3674 15.5654 18.9523C15.6591 18.4785 15.6673 17.942 15.6002 16.6908C15.5566 15.879 15.558 15.4929 15.6057 15.2186C15.6696 14.8511 15.8068 14.7196 16.0218 14.8203ZM12.4455 17.0665C12.5407 17.1062 12.5806 17.1811 12.5976 17.3516C12.716 18.5404 12.4856 19.7852 11.9477 20.8626C10.9304 22.9002 9.10867 23.6552 7.82916 22.5694C7.09677 21.9479 6.65462 20.7922 6.65401 19.4981L6.65389 19.2949L6.7347 19.3455C7.15918 19.6116 7.69435 19.8814 8.14257 20.0553C8.44556 20.1729 8.69652 20.1548 9.03976 19.9905C9.52051 19.7605 9.94138 19.3784 10.9538 18.2529C11.4927 17.6538 11.7308 17.414 11.9527 17.2471C12.1709 17.0829 12.3382 17.0216 12.4455 17.0665Z" fill="url(#paint1_linear_272_4334)" fill-opacity="0.9" style="mix-blend-mode:soft-light"/>
<path d="M32.9927 19.0651V4.67172H35.0792V17.1718H41.3389V19.0651H32.9927Z" fill="#03061A"/>
<path d="M47.3689 19.297C46.3642 19.297 45.4497 19.0651 44.6254 18.6014C43.814 18.1249 43.1635 17.4744 42.6741 16.6501C42.1975 15.8258 41.9593 14.8856 41.9593 13.8294C41.9593 12.7861 42.1975 11.8588 42.6741 11.0473C43.1507 10.2359 43.7947 9.59188 44.6061 9.11532C45.4304 8.63876 46.3513 8.40048 47.3689 8.40048C48.3864 8.40048 49.3009 8.63876 50.1123 9.11532C50.9366 9.579 51.5871 10.223 52.0636 11.0473C52.5402 11.8588 52.7785 12.7861 52.7785 13.8294C52.7785 14.8856 52.5337 15.8258 52.0443 16.6501C51.5549 17.4744 50.9044 18.1249 50.093 18.6014C49.2816 19.0651 48.3735 19.297 47.3689 19.297ZM47.3689 17.4036C48 17.4036 48.5667 17.249 49.069 16.9399C49.5714 16.6308 49.9642 16.2058 50.2475 15.6648C50.5438 15.1238 50.6919 14.512 50.6919 13.8294C50.6919 13.1596 50.5438 12.5607 50.2475 12.0326C49.9642 11.4917 49.5714 11.0666 49.069 10.7575C48.5667 10.4484 48 10.2938 47.3689 10.2938C46.7377 10.2938 46.171 10.4484 45.6687 10.7575C45.1793 11.0666 44.7864 11.4917 44.4902 12.0326C44.1939 12.5607 44.0458 13.1596 44.0458 13.8294C44.0458 14.512 44.1939 15.1238 44.4902 15.6648C44.7864 16.2058 45.1793 16.6308 45.6687 16.9399C46.171 17.249 46.7377 17.4036 47.3689 17.4036Z" fill="#03061A"/>
<path d="M59.2564 23.3155C58.5094 23.3155 57.8138 23.1932 57.1698 22.9484C56.5387 22.7166 55.9978 22.3882 55.547 21.9631C55.0962 21.551 54.7548 21.0615 54.523 20.4948L56.3584 19.7027C56.5387 20.1921 56.8736 20.5978 57.363 20.9198C57.8654 21.2547 58.49 21.4222 59.2371 21.4222C59.8038 21.4222 60.319 21.3127 60.7827 21.0937C61.2464 20.8876 61.6134 20.5721 61.8839 20.147C62.1544 19.722 62.2896 19.2068 62.2896 18.6014V16.2637L62.6374 16.6501C62.2768 17.3456 61.768 17.8737 61.1111 18.2344C60.4671 18.595 59.7394 18.7753 58.928 18.7753C57.9491 18.7753 57.0732 18.5499 56.3004 18.0991C55.5276 17.6354 54.9223 17.0108 54.4844 16.2251C54.0464 15.4394 53.8275 14.5571 53.8275 13.5782C53.8275 12.5994 54.0464 11.7235 54.4844 10.9507C54.9223 10.165 55.5212 9.5468 56.2811 9.096C57.0539 8.63232 57.9298 8.40048 58.9086 8.40048C59.7072 8.40048 60.4285 8.5808 61.0725 8.94144C61.7165 9.2892 62.2381 9.78508 62.6374 10.4291L62.3669 10.9507V8.63232H64.2796V18.6014C64.2796 19.503 64.0606 20.308 63.6227 21.0164C63.1977 21.7377 62.6052 22.298 61.8453 22.6973C61.0982 23.1094 60.2353 23.3155 59.2564 23.3155ZM59.1212 16.882C59.7265 16.882 60.261 16.7403 60.7247 16.4569C61.2013 16.1607 61.5812 15.7614 61.8646 15.2591C62.148 14.7568 62.2896 14.2029 62.2896 13.5976C62.2896 12.9793 62.148 12.419 61.8646 11.9167C61.5812 11.4144 61.2013 11.0216 60.7247 10.7382C60.261 10.442 59.7265 10.2938 59.1212 10.2938C58.5158 10.2938 57.9684 10.442 57.479 10.7382C56.9895 11.0216 56.6031 11.4144 56.3198 11.9167C56.0493 12.4062 55.914 12.9664 55.914 13.5976C55.914 14.2029 56.0493 14.7568 56.3198 15.2591C56.6031 15.7485 56.9831 16.1414 57.4596 16.4376C57.9491 16.7338 58.5029 16.882 59.1212 16.882Z" fill="#03061A"/>
<path d="M71.1619 19.297C70.1573 19.297 69.2428 19.0651 68.4185 18.6014C67.607 18.1249 66.9566 17.4744 66.4671 16.6501C65.9906 15.8258 65.7523 14.8856 65.7523 13.8294C65.7523 12.7861 65.9906 11.8588 66.4671 11.0473C66.9437 10.2359 67.5877 9.59188 68.3991 9.11532C69.2235 8.63876 70.1444 8.40048 71.1619 8.40048C72.1794 8.40048 73.0939 8.63876 73.9053 9.11532C74.7297 9.579 75.3801 10.223 75.8567 11.0473C76.3332 11.8588 76.5715 12.7861 76.5715 13.8294C76.5715 14.8856 76.3268 15.8258 75.8373 16.6501C75.3479 17.4744 74.6975 18.1249 73.886 18.6014C73.0746 19.0651 72.1665 19.297 71.1619 19.297ZM71.1619 17.4036C71.793 17.4036 72.3597 17.249 72.8621 16.9399C73.3644 16.6308 73.7572 16.2058 74.0406 15.6648C74.3368 15.1238 74.4849 14.512 74.4849 13.8294C74.4849 13.1596 74.3368 12.5607 74.0406 12.0326C73.7572 11.4917 73.3644 11.0666 72.8621 10.7575C72.3597 10.4484 71.793 10.2938 71.1619 10.2938C70.5308 10.2938 69.9641 10.4484 69.4617 10.7575C68.9723 11.0666 68.5795 11.4917 68.2832 12.0326C67.987 12.5607 67.8389 13.1596 67.8389 13.8294C67.8389 14.512 67.987 15.1238 68.2832 15.6648C68.5795 16.2058 68.9723 16.6308 69.4617 16.9399C69.9641 17.249 70.5308 17.4036 71.1619 17.4036Z" fill="#03061A"/>
<path d="M78.0456 19.0651V4.43988H80.0355V19.0651H78.0456Z" fill="#03061A"/>
<path d="M81.933 19.0651V8.63232H83.9229V19.0651H81.933ZM81.933 7.08672V4.67172H83.9229V7.08672H81.933Z" fill="#03061A"/>
<path d="M88.7763 19.0651L84.6998 8.63232H86.8829L90.0901 17.307H89.3173L92.5437 8.63232H94.7269L90.631 19.0651H88.7763Z" fill="#03061A"/>
<path d="M100.161 19.297C99.1302 19.297 98.2157 19.0587 97.4172 18.5821C96.6315 18.0927 96.0133 17.4358 95.5625 16.6115C95.1117 15.7872 94.8863 14.8534 94.8863 13.8101C94.8863 12.7668 95.1117 11.8394 95.5625 11.028C96.0133 10.2166 96.6186 9.579 97.3785 9.11532C98.1513 8.63876 99.0207 8.40048 99.9867 8.40048C100.772 8.40048 101.468 8.53572 102.073 8.8062C102.679 9.07668 103.194 9.4502 103.619 9.92676C104.044 10.4033 104.366 10.9443 104.585 11.5496C104.817 12.1421 104.933 12.7668 104.933 13.4237C104.933 13.5911 104.92 13.765 104.894 13.9453C104.881 14.1128 104.862 14.2738 104.836 14.4283H96.3932V12.7861H103.696L102.75 13.5203C102.865 12.8763 102.807 12.2967 102.576 11.7815C102.357 11.2663 102.015 10.8606 101.552 10.5643C101.101 10.2681 100.579 10.12 99.9867 10.12C99.3943 10.12 98.8597 10.2745 98.3832 10.5836C97.9066 10.8799 97.5395 11.3049 97.2819 11.8588C97.0243 12.4126 96.9213 13.0695 96.9728 13.8294C96.9084 14.5764 97.0115 15.2269 97.2819 15.7807C97.5653 16.3217 97.9581 16.7467 98.4605 17.0558C98.9757 17.3521 99.5488 17.5002 100.18 17.5002C100.85 17.5002 101.41 17.3521 101.861 17.0558C102.324 16.7467 102.698 16.3603 102.981 15.8966L104.624 16.7081C104.417 17.1975 104.095 17.6354 103.658 18.0218C103.22 18.4082 102.704 18.7174 102.112 18.9492C101.519 19.181 100.869 19.297 100.161 19.297Z" fill="#03061A"/>
<path d="M106.406 19.0651V8.63232H108.319V10.6416L108.125 10.3518C108.37 9.7078 108.744 9.24412 109.246 8.96076C109.761 8.66452 110.379 8.5164 111.101 8.5164H111.738V10.3518H110.83C110.096 10.3518 109.504 10.5772 109.053 11.028C108.615 11.4788 108.396 12.1164 108.396 12.9407V19.0651H106.406Z" fill="#03061A"/>
<path d="M113.273 23.3348C113.028 23.3348 112.784 23.3155 112.539 23.2769C112.294 23.2382 112.069 23.1674 111.863 23.0644V21.3449C112.004 21.3706 112.185 21.3964 112.404 21.4222C112.623 21.4608 112.835 21.4801 113.041 21.4801C113.647 21.4801 114.097 21.3449 114.394 21.0744C114.703 20.8168 114.986 20.3853 115.244 19.78L115.92 18.1957L115.881 19.9152L111.399 8.63232H113.544L116.944 17.4422H116.248L119.649 8.63232H121.813L117.156 20.263C116.925 20.8426 116.628 21.3642 116.268 21.8279C115.92 22.3044 115.495 22.6715 114.993 22.9291C114.503 23.1996 113.93 23.3348 113.273 23.3348Z" fill="#03061A"/>
<path d="M136.61 4.67175H134.524V19.0652H136.61V4.67175Z" fill="url(#paint2_linear_272_4334)"/>
<path d="M136.61 4.67175H134.524V19.0652H136.61V4.67175Z" fill="url(#paint3_linear_272_4334)" fill-opacity="0.9" style="mix-blend-mode:soft-light"/>
<path fill-rule="evenodd" clip-rule="evenodd" d="M125.914 4.67175H128.445L133.545 19.0652H131.304L130.164 15.7614H124.175L123.035 19.0652H120.794L125.914 4.67175ZM129.527 13.8874H124.793L127.168 7.00244L129.527 13.8874Z" fill="url(#paint4_linear_272_4334)"/>
<path fill-rule="evenodd" clip-rule="evenodd" d="M125.914 4.67175H128.445L133.545 19.0652H131.304L130.164 15.7614H124.175L123.035 19.0652H120.794L125.914 4.67175ZM129.527 13.8874H124.793L127.168 7.00244L129.527 13.8874Z" fill="url(#paint5_linear_272_4334)" fill-opacity="0.9" style="mix-blend-mode:soft-light"/>
<defs>
<linearGradient id="paint0_linear_272_4334" x1="11.3904" y1="23.0651" x2="11.3904" y2="0.665125" gradientUnits="userSpaceOnUse">
<stop stop-color="#415EED"/>
<stop offset="1" stop-color="#3651DA"/>
</linearGradient>
<linearGradient id="paint1_linear_272_4334" x1="0.19043" y1="0.665125" x2="22.5904" y2="23.0651" gradientUnits="userSpaceOnUse">
<stop stop-color="#F7F8FC" stop-opacity="0"/>
<stop offset="0.119535" stop-color="#F7F8FC" stop-opacity="0.466594"/>
<stop offset="0.275284" stop-color="#F7F8FC" stop-opacity="0.1"/>
<stop offset="0.525208" stop-color="#F7F8FC"/>
<stop offset="0.821602" stop-color="#F7F8FC" stop-opacity="0"/>
<stop offset="1" stop-color="#F7F8FC" stop-opacity="0"/>
</linearGradient>
<linearGradient id="paint2_linear_272_4334" x1="128.702" y1="4.67175" x2="128.702" y2="19.0652" gradientUnits="userSpaceOnUse">
<stop stop-color="#415EED"/>
<stop offset="1" stop-color="#3651DA"/>
</linearGradient>
<linearGradient id="paint3_linear_272_4334" x1="120.794" y1="19.0652" x2="136.61" y2="4.67175" gradientUnits="userSpaceOnUse">
<stop stop-color="#F7F8FC" stop-opacity="0"/>
<stop offset="0.119535" stop-color="#F7F8FC" stop-opacity="0.466594"/>
<stop offset="0.275284" stop-color="#F7F8FC" stop-opacity="0.1"/>
<stop offset="0.525208" stop-color="#F7F8FC"/>
<stop offset="0.821602" stop-color="#F7F8FC" stop-opacity="0"/>
<stop offset="1" stop-color="#F7F8FC" stop-opacity="0"/>
</linearGradient>
<linearGradient id="paint4_linear_272_4334" x1="128.702" y1="4.67175" x2="128.702" y2="19.0652" gradientUnits="userSpaceOnUse">
<stop stop-color="#415EED"/>
<stop offset="1" stop-color="#3651DA"/>
</linearGradient>
<linearGradient id="paint5_linear_272_4334" x1="120.794" y1="19.0652" x2="136.61" y2="4.67175" gradientUnits="userSpaceOnUse">
<stop stop-color="#F7F8FC" stop-opacity="0"/>
<stop offset="0.119535" stop-color="#F7F8FC" stop-opacity="0.466594"/>
<stop offset="0.275284" stop-color="#F7F8FC" stop-opacity="0.1"/>
<stop offset="0.525208" stop-color="#F7F8FC"/>
<stop offset="0.821602" stop-color="#F7F8FC" stop-opacity="0"/>
<stop offset="1" stop-color="#F7F8FC" stop-opacity="0"/>
</linearGradient>
</defs>
</svg>
