<svg width="172" height="30" viewBox="0 0 172 30" fill="none" xmlns="http://www.w3.org/2000/svg">
<path d="M17.2924 0.842823C18.8334 0.993274 19.9438 2.56881 20.0939 4.81786C20.1066 5.00819 20.1113 5.49299 20.1005 5.49299C20.0972 5.49299 20.0129 5.44409 19.913 5.38434C19.377 5.06357 18.6215 4.69769 18.197 4.55333C17.7948 4.41656 17.3207 4.53946 16.7717 4.92286C16.3022 5.25069 15.8474 5.68942 15.0075 6.62466C14.2854 7.42866 14.0168 7.71146 13.7588 7.93933C13.2464 8.39183 12.9241 8.4713 12.7867 8.17909C12.6685 7.92762 12.6624 6.89264 12.7744 6.09331C13.2018 3.04498 15.2669 0.645053 17.2924 0.842823ZM8.67817 2.24919C9.73971 2.42047 10.8071 3.03389 11.7605 4.02049L11.8189 4.081L11.583 4.13994C10.7614 4.3451 9.78801 4.71036 9.56572 4.89694C9.25289 5.1596 9.06254 5.62487 8.97895 6.33125C8.92086 6.82263 8.92413 7.51336 8.99028 8.69926C9.06595 10.0566 9.05078 10.57 8.92518 10.9036C8.79556 11.2478 8.58312 11.272 8.23596 10.9821C6.9063 9.87177 5.89076 8.16498 5.56905 6.49974C5.15098 4.33564 5.95763 2.62189 7.55797 2.27429C7.8684 2.20687 8.34893 2.19611 8.67817 2.24919ZM24.177 6.07531C26.9478 6.36887 27.7064 8.98644 25.7651 11.5549C25.5601 11.8261 25.0408 12.4073 25.0035 12.4073C24.9991 12.4073 24.9691 12.3013 24.9367 12.1717C24.7385 11.3801 24.3876 10.4301 24.2023 10.1837C23.9468 9.84399 23.4197 9.63163 22.6449 9.55628C22.2503 9.51789 21.3103 9.51491 20.8781 9.55072C20.7332 9.56271 19.5971 9.61608 19.3535 9.62232C18.2407 9.65087 17.7508 9.45488 17.9393 9.05655C17.9845 8.961 18.0429 8.88475 18.2369 8.66754C19.7961 6.9223 22.2136 5.86727 24.177 6.07531ZM4.91574 8.91709C4.93297 8.92429 4.91343 8.96379 4.79331 9.16453C4.45907 9.72324 4.11048 10.4409 3.96141 10.8776C3.82885 11.2656 3.94528 11.7423 4.29886 12.2597C4.6417 12.7613 5.11838 13.2545 6.15625 14.1813C7.18859 15.1031 7.54362 15.477 7.70008 15.807C7.83052 16.0822 7.75726 16.2621 7.48755 16.3291C7.16305 16.4097 6.13762 16.3966 5.48901 16.3036C3.25178 15.9829 1.3038 14.7854 0.554476 13.2702C-0.456984 11.2249 1.0325 9.30534 3.89751 8.96187C4.22858 8.92218 4.86149 8.89434 4.91574 8.91709ZM22.4433 13.3012C23.6196 13.3948 24.8299 13.7491 25.744 14.2675C25.771 14.2829 25.8178 14.3092 25.8481 14.326C26.5501 14.717 27.2271 15.313 27.6373 15.9011C28.2926 16.8407 28.4165 17.8501 27.9843 18.728C27.4337 19.8465 26.037 20.5958 24.2552 20.7287C24.0796 20.7418 23.5631 20.7496 23.5528 20.7393C23.5495 20.7359 23.5762 20.6869 23.6121 20.6301C23.9579 20.084 24.4606 19.0504 24.5515 18.6984C24.5816 18.5818 24.5844 18.3392 24.5571 18.2079C24.4135 17.5183 23.8489 16.8297 22.2793 15.4302C20.9326 14.2294 20.5621 13.7363 20.7944 13.4545C20.886 13.3434 21.006 13.3169 21.5694 13.2833C21.691 13.2761 22.2781 13.2881 22.4433 13.3012ZM3.49351 17.2491C3.49351 17.2594 3.51794 17.3651 3.54781 17.4839C3.76831 18.3612 4.11412 19.2797 4.31163 19.5126C4.73244 20.0086 5.65983 20.1976 7.33152 20.1279C7.62528 20.1157 8.27898 20.0817 8.35987 20.0745C8.75883 20.0388 9.70812 20.0382 9.96401 20.0735C10.4058 20.1345 10.6061 20.2628 10.5917 20.4755C10.5836 20.5967 10.5523 20.6445 10.2704 20.9675C9.47585 21.8781 8.37164 22.6573 7.22743 23.1147C6.42764 23.4345 5.70026 23.5932 4.94425 23.613C2.64317 23.6733 1.26842 22.2225 1.6897 20.1784C1.88164 19.2469 2.44191 18.2723 3.27761 17.416C3.46005 17.2291 3.49351 17.2032 3.49351 17.2491ZM20.0269 18.5254C20.1559 18.5858 20.5983 18.9811 20.9001 19.3054C21.9022 20.3826 22.6091 21.7168 22.896 23.0725C22.9877 23.5058 23.014 23.7723 23.0137 24.2656C23.0133 24.7687 22.9891 24.9854 22.8907 25.3645C22.2535 27.8192 19.573 28.1609 17.1606 26.095C16.9321 25.8994 16.6192 25.5907 16.6418 25.5833C16.6519 25.58 16.7649 25.5522 16.8928 25.5214C17.6395 25.3419 18.6426 24.973 18.8905 24.7867C19.1605 24.5837 19.3539 24.2093 19.4564 23.6904C19.5734 23.0981 19.5838 22.4276 19.4999 20.8635C19.4454 19.8487 19.4472 19.3661 19.5068 19.0233C19.5866 18.5638 19.7582 18.3995 20.0269 18.5254ZM15.5566 21.3331C15.6755 21.3828 15.7254 21.4764 15.7466 21.6895C15.8947 23.1755 15.6067 24.7315 14.9343 26.0783C13.6626 28.6253 11.3855 29.569 9.78609 28.2118C8.8706 27.4349 8.31791 25.9903 8.31714 24.3726L8.317 24.1186L8.41801 24.1819C8.94861 24.5145 9.61757 24.8518 10.1778 25.0692C10.5566 25.2162 10.8703 25.1935 11.2993 24.9882C11.9003 24.7006 12.4264 24.223 13.6919 22.8161C14.3655 22.0672 14.6631 21.7676 14.9405 21.5589C15.2133 21.3537 15.4223 21.277 15.5566 21.3331Z" fill="url(#paint0_linear_1_21)"/>
<path d="M17.2924 0.842823C18.8334 0.993274 19.9438 2.56881 20.0939 4.81786C20.1066 5.00819 20.1113 5.49299 20.1005 5.49299C20.0972 5.49299 20.0129 5.44409 19.913 5.38434C19.377 5.06357 18.6215 4.69769 18.197 4.55333C17.7948 4.41656 17.3207 4.53946 16.7717 4.92286C16.3022 5.25069 15.8474 5.68942 15.0075 6.62466C14.2854 7.42866 14.0168 7.71146 13.7588 7.93933C13.2464 8.39183 12.9241 8.4713 12.7867 8.17909C12.6685 7.92762 12.6624 6.89264 12.7744 6.09331C13.2018 3.04498 15.2669 0.645053 17.2924 0.842823ZM8.67817 2.24919C9.73971 2.42047 10.8071 3.03389 11.7605 4.02049L11.8189 4.081L11.583 4.13994C10.7614 4.3451 9.78801 4.71036 9.56572 4.89694C9.25289 5.1596 9.06254 5.62487 8.97895 6.33125C8.92086 6.82263 8.92413 7.51336 8.99028 8.69926C9.06595 10.0566 9.05078 10.57 8.92518 10.9036C8.79556 11.2478 8.58312 11.272 8.23596 10.9821C6.9063 9.87177 5.89076 8.16498 5.56905 6.49974C5.15098 4.33564 5.95763 2.62189 7.55797 2.27429C7.8684 2.20687 8.34893 2.19611 8.67817 2.24919ZM24.177 6.07531C26.9478 6.36887 27.7064 8.98644 25.7651 11.5549C25.5601 11.8261 25.0408 12.4073 25.0035 12.4073C24.9991 12.4073 24.9691 12.3013 24.9367 12.1717C24.7385 11.3801 24.3876 10.4301 24.2023 10.1837C23.9468 9.84399 23.4197 9.63163 22.6449 9.55628C22.2503 9.51789 21.3103 9.51491 20.8781 9.55072C20.7332 9.56271 19.5971 9.61608 19.3535 9.62232C18.2407 9.65087 17.7508 9.45488 17.9393 9.05655C17.9845 8.961 18.0429 8.88475 18.2369 8.66754C19.7961 6.9223 22.2136 5.86727 24.177 6.07531ZM4.91574 8.91709C4.93297 8.92429 4.91343 8.96379 4.79331 9.16453C4.45907 9.72324 4.11048 10.4409 3.96141 10.8776C3.82885 11.2656 3.94528 11.7423 4.29886 12.2597C4.6417 12.7613 5.11838 13.2545 6.15625 14.1813C7.18859 15.1031 7.54362 15.477 7.70008 15.807C7.83052 16.0822 7.75726 16.2621 7.48755 16.3291C7.16305 16.4097 6.13762 16.3966 5.48901 16.3036C3.25178 15.9829 1.3038 14.7854 0.554476 13.2702C-0.456984 11.2249 1.0325 9.30534 3.89751 8.96187C4.22858 8.92218 4.86149 8.89434 4.91574 8.91709ZM22.4433 13.3012C23.6196 13.3948 24.8299 13.7491 25.744 14.2675C25.771 14.2829 25.8178 14.3092 25.8481 14.326C26.5501 14.717 27.2271 15.313 27.6373 15.9011C28.2926 16.8407 28.4165 17.8501 27.9843 18.728C27.4337 19.8465 26.037 20.5958 24.2552 20.7287C24.0796 20.7418 23.5631 20.7496 23.5528 20.7393C23.5495 20.7359 23.5762 20.6869 23.6121 20.6301C23.9579 20.084 24.4606 19.0504 24.5515 18.6984C24.5816 18.5818 24.5844 18.3392 24.5571 18.2079C24.4135 17.5183 23.8489 16.8297 22.2793 15.4302C20.9326 14.2294 20.5621 13.7363 20.7944 13.4545C20.886 13.3434 21.006 13.3169 21.5694 13.2833C21.691 13.2761 22.2781 13.2881 22.4433 13.3012ZM3.49351 17.2491C3.49351 17.2594 3.51794 17.3651 3.54781 17.4839C3.76831 18.3612 4.11412 19.2797 4.31163 19.5126C4.73244 20.0086 5.65983 20.1976 7.33152 20.1279C7.62528 20.1157 8.27898 20.0817 8.35987 20.0745C8.75883 20.0388 9.70812 20.0382 9.96401 20.0735C10.4058 20.1345 10.6061 20.2628 10.5917 20.4755C10.5836 20.5967 10.5523 20.6445 10.2704 20.9675C9.47585 21.8781 8.37164 22.6573 7.22743 23.1147C6.42764 23.4345 5.70026 23.5932 4.94425 23.613C2.64317 23.6733 1.26842 22.2225 1.6897 20.1784C1.88164 19.2469 2.44191 18.2723 3.27761 17.416C3.46005 17.2291 3.49351 17.2032 3.49351 17.2491ZM20.0269 18.5254C20.1559 18.5858 20.5983 18.9811 20.9001 19.3054C21.9022 20.3826 22.6091 21.7168 22.896 23.0725C22.9877 23.5058 23.014 23.7723 23.0137 24.2656C23.0133 24.7687 22.9891 24.9854 22.8907 25.3645C22.2535 27.8192 19.573 28.1609 17.1606 26.095C16.9321 25.8994 16.6192 25.5907 16.6418 25.5833C16.6519 25.58 16.7649 25.5522 16.8928 25.5214C17.6395 25.3419 18.6426 24.973 18.8905 24.7867C19.1605 24.5837 19.3539 24.2093 19.4564 23.6904C19.5734 23.0981 19.5838 22.4276 19.4999 20.8635C19.4454 19.8487 19.4472 19.3661 19.5068 19.0233C19.5866 18.5638 19.7582 18.3995 20.0269 18.5254ZM15.5566 21.3331C15.6755 21.3828 15.7254 21.4764 15.7466 21.6895C15.8947 23.1755 15.6067 24.7315 14.9343 26.0783C13.6626 28.6253 11.3855 29.569 9.78609 28.2118C8.8706 27.4349 8.31791 25.9903 8.31714 24.3726L8.317 24.1186L8.41801 24.1819C8.94861 24.5145 9.61757 24.8518 10.1778 25.0692C10.5566 25.2162 10.8703 25.1935 11.2993 24.9882C11.9003 24.7006 12.4264 24.223 13.6919 22.8161C14.3655 22.0672 14.6631 21.7676 14.9405 21.5589C15.2133 21.3537 15.4223 21.277 15.5566 21.3331Z" fill="url(#paint1_linear_1_21)" fill-opacity="0.9" style="mix-blend-mode:soft-light"/>
<path d="M41.2406 23.8314V5.83966H43.8488V21.4647H51.6734V23.8314H41.2406Z" fill="#03061A"/>
<path d="M59.2108 24.1212C57.955 24.1212 56.8119 23.8314 55.7815 23.2518C54.7672 22.6561 53.9542 21.8431 53.3424 20.8127C52.7467 19.7823 52.4488 18.607 52.4488 17.2868C52.4488 15.9827 52.7467 14.8235 53.3424 13.8092C53.9381 12.7949 54.7431 11.9899 55.7574 11.3942C56.7878 10.7985 57.9389 10.5006 59.2108 10.5006C60.4827 10.5006 61.6258 10.7985 62.6401 11.3942C63.6705 11.9738 64.4836 12.7788 65.0793 13.8092C65.675 14.8235 65.9728 15.9827 65.9728 17.2868C65.9728 18.607 65.6669 19.7823 65.0551 20.8127C64.4433 21.8431 63.6303 22.6561 62.616 23.2518C61.6017 23.8314 60.4666 24.1212 59.2108 24.1212ZM59.2108 21.7545C59.9997 21.7545 60.7081 21.5613 61.336 21.1749C61.9639 20.7885 62.455 20.2572 62.8092 19.581C63.1795 18.9048 63.3646 18.1401 63.3646 17.2868C63.3646 16.4496 63.1795 15.7009 62.8092 15.0408C62.455 14.3646 61.9639 13.8333 61.336 13.4469C60.7081 13.0605 59.9997 12.8673 59.2108 12.8673C58.4219 12.8673 57.7135 13.0605 57.0856 13.4469C56.4738 13.8333 55.9828 14.3646 55.6125 15.0408C55.2422 15.7009 55.057 16.4496 55.057 17.2868C55.057 18.1401 55.2422 18.9048 55.6125 19.581C55.9828 20.2572 56.4738 20.7885 57.0856 21.1749C57.7135 21.5613 58.4219 21.7545 59.2108 21.7545Z" fill="#03061A"/>
<path d="M74.0703 29.1444C73.1365 29.1444 72.2671 28.9915 71.4621 28.6856C70.6732 28.3958 69.997 27.9852 69.4335 27.4539C68.87 26.9387 68.4433 26.3269 68.1535 25.6185L70.4478 24.6284C70.6732 25.2402 71.0918 25.7473 71.7036 26.1498C72.3315 26.5684 73.1123 26.7777 74.0461 26.7777C74.7545 26.7777 75.3985 26.6409 75.9781 26.3672C76.5577 26.1096 77.0166 25.7151 77.3547 25.1838C77.6928 24.6525 77.8618 24.0085 77.8618 23.2518V20.3297L78.2965 20.8127C77.8457 21.6821 77.2098 22.3422 76.3887 22.793C75.5837 23.2438 74.674 23.4692 73.6597 23.4692C72.4361 23.4692 71.3413 23.1874 70.3753 22.6239C69.4093 22.0443 68.6526 21.2635 68.1052 20.2814C67.5578 19.2993 67.2841 18.1964 67.2841 16.9728C67.2841 15.7492 67.5578 14.6544 68.1052 13.6884C68.6526 12.7063 69.4013 11.9335 70.3512 11.37C71.3172 10.7904 72.412 10.5006 73.6356 10.5006C74.6338 10.5006 75.5354 10.726 76.3404 11.1768C77.1454 11.6115 77.7974 12.2314 78.2965 13.0364L77.9584 13.6884V10.7904H80.3493V23.2518C80.3493 24.3788 80.0756 25.3851 79.5282 26.2706C78.9969 27.1722 78.2563 27.8725 77.3064 28.3716C76.3726 28.8868 75.2939 29.1444 74.0703 29.1444ZM73.9012 21.1025C74.6579 21.1025 75.3261 20.9254 75.9057 20.5712C76.5014 20.2009 76.9763 19.7018 77.3305 19.0739C77.6847 18.446 77.8618 17.7537 77.8618 16.997C77.8618 16.2242 77.6847 15.5238 77.3305 14.8959C76.9763 14.268 76.5014 13.777 75.9057 13.4228C75.3261 13.0525 74.6579 12.8673 73.9012 12.8673C73.1445 12.8673 72.4603 13.0525 71.8485 13.4228C71.2367 13.777 70.7537 14.268 70.3995 14.8959C70.0614 15.5077 69.8923 16.2081 69.8923 16.997C69.8923 17.7537 70.0614 18.446 70.3995 19.0739C70.7537 19.6857 71.2286 20.1767 71.8243 20.547C72.4361 20.9173 73.1284 21.1025 73.9012 21.1025Z" fill="#03061A"/>
<path d="M88.9521 24.1212C87.6963 24.1212 86.5532 23.8314 85.5228 23.2518C84.5085 22.6561 83.6955 21.8431 83.0837 20.8127C82.488 19.7823 82.1901 18.607 82.1901 17.2868C82.1901 15.9827 82.488 14.8235 83.0837 13.8092C83.6794 12.7949 84.4844 11.9899 85.4987 11.3942C86.5291 10.7985 87.6802 10.5006 88.9521 10.5006C90.224 10.5006 91.3671 10.7985 92.3814 11.3942C93.4118 11.9738 94.2249 12.7788 94.8206 13.8092C95.4163 14.8235 95.7141 15.9827 95.7141 17.2868C95.7141 18.607 95.4082 19.7823 94.7964 20.8127C94.1846 21.8431 93.3716 22.6561 92.3573 23.2518C91.343 23.8314 90.2079 24.1212 88.9521 24.1212ZM88.9521 21.7545C89.741 21.7545 90.4494 21.5613 91.0773 21.1749C91.7052 20.7885 92.1963 20.2572 92.5505 19.581C92.9208 18.9048 93.1059 18.1401 93.1059 17.2868C93.1059 16.4496 92.9208 15.7009 92.5505 15.0408C92.1963 14.3646 91.7052 13.8333 91.0773 13.4469C90.4494 13.0605 89.741 12.8673 88.9521 12.8673C88.1632 12.8673 87.4548 13.0605 86.8269 13.4469C86.2151 13.8333 85.7241 14.3646 85.3538 15.0408C84.9835 15.7009 84.7983 16.4496 84.7983 17.2868C84.7983 18.1401 84.9835 18.9048 85.3538 19.581C85.7241 20.2572 86.2151 20.7885 86.8269 21.1749C87.4548 21.5613 88.1632 21.7545 88.9521 21.7545Z" fill="#03061A"/>
<path d="M97.5567 23.8314V5.54987H100.044V23.8314H97.5567Z" fill="#03061A"/>
<path d="M102.416 23.8314V10.7904H104.903V23.8314H102.416ZM102.416 8.85842V5.83966H104.903V8.85842H102.416Z" fill="#03061A"/>
<path d="M110.97 23.8314L105.874 10.7904H108.603L112.612 21.6338H111.646L115.679 10.7904H118.408L113.289 23.8314H110.97Z" fill="#03061A"/>
<path d="M125.201 24.1212C123.913 24.1212 122.769 23.8234 121.771 23.2277C120.789 22.6159 120.016 21.7948 119.453 20.7644C118.889 19.734 118.608 18.5667 118.608 17.2626C118.608 15.9585 118.889 14.7993 119.453 13.785C120.016 12.7707 120.773 11.9738 121.723 11.3942C122.689 10.7985 123.776 10.5006 124.983 10.5006C125.965 10.5006 126.835 10.6697 127.591 11.0078C128.348 11.3459 128.992 11.8128 129.523 12.4085C130.055 13.0042 130.457 13.6804 130.731 14.4371C131.021 15.1777 131.166 15.9585 131.166 16.7796C131.166 16.9889 131.149 17.2063 131.117 17.4317C131.101 17.641 131.077 17.8422 131.045 18.0354H120.491V15.9827H129.62L128.437 16.9004C128.582 16.0954 128.509 15.3709 128.219 14.7269C127.946 14.0829 127.519 13.5757 126.939 13.2054C126.376 12.8351 125.724 12.65 124.983 12.65C124.243 12.65 123.574 12.8432 122.979 13.2296C122.383 13.5999 121.924 14.1312 121.602 14.8235C121.28 15.5158 121.151 16.3369 121.216 17.2868C121.135 18.2206 121.264 19.0336 121.602 19.7259C121.956 20.4021 122.447 20.9334 123.075 21.3198C123.719 21.6901 124.436 21.8753 125.225 21.8753C126.062 21.8753 126.762 21.6901 127.326 21.3198C127.905 20.9334 128.372 20.4504 128.726 19.8708L130.779 20.8851C130.522 21.4969 130.119 22.0443 129.572 22.5273C129.024 23.0103 128.38 23.3967 127.64 23.6865C126.899 23.9763 126.086 24.1212 125.201 24.1212Z" fill="#03061A"/>
<path d="M133.007 23.8314V10.7904H135.398V13.302L135.157 12.9398C135.462 12.1348 135.929 11.5552 136.557 11.201C137.201 10.8307 137.974 10.6455 138.876 10.6455H139.673V12.9398H138.538C137.62 12.9398 136.879 13.2215 136.316 13.785C135.768 14.3485 135.495 15.1455 135.495 16.1759V23.8314H133.007Z" fill="#03061A"/>
<path d="M141.591 29.1686C141.285 29.1686 140.979 29.1444 140.674 29.0961C140.368 29.0478 140.086 28.9593 139.828 28.8305V26.6811C140.005 26.7133 140.231 26.7455 140.504 26.7777C140.778 26.826 141.044 26.8502 141.301 26.8502C142.058 26.8502 142.622 26.6811 142.992 26.343C143.378 26.021 143.733 25.4817 144.055 24.725L144.9 22.7447L144.851 24.894L139.249 10.7904H141.929L146.18 21.8028H145.31L149.561 10.7904H152.266L146.445 25.3287C146.156 26.0532 145.785 26.7053 145.334 27.2849C144.9 27.8806 144.368 28.3394 143.741 28.6614C143.129 28.9995 142.412 29.1686 141.591 29.1686Z" fill="#03061A"/>
<path d="M170.762 5.83966H168.154V23.8314H170.762V5.83966Z" fill="url(#paint2_linear_1_21)"/>
<path d="M170.762 5.83966H168.154V23.8314H170.762V5.83966Z" fill="url(#paint3_linear_1_21)" fill-opacity="0.9" style="mix-blend-mode:soft-light"/>
<path fill-rule="evenodd" clip-rule="evenodd" d="M157.392 5.83966H160.555L166.931 23.8314H164.13L162.705 19.7018H155.218L153.793 23.8314H150.992L157.392 5.83966ZM161.908 17.3592H155.991L158.96 8.75302L161.908 17.3592Z" fill="url(#paint4_linear_1_21)"/>
<path fill-rule="evenodd" clip-rule="evenodd" d="M157.392 5.83966H160.555L166.931 23.8314H164.13L162.705 19.7018H155.218L153.793 23.8314H150.992L157.392 5.83966ZM161.908 17.3592H155.991L158.96 8.75302L161.908 17.3592Z" fill="url(#paint5_linear_1_21)" fill-opacity="0.9" style="mix-blend-mode:soft-light"/>
<defs>
<linearGradient id="paint0_linear_1_21" x1="14.2377" y1="28.8314" x2="14.2377" y2="0.831421" gradientUnits="userSpaceOnUse">
<stop stop-color="#415EED"/>
<stop offset="1" stop-color="#3651DA"/>
</linearGradient>
<linearGradient id="paint1_linear_1_21" x1="0.237671" y1="0.83142" x2="28.2377" y2="28.8314" gradientUnits="userSpaceOnUse">
<stop stop-color="#F7F8FC" stop-opacity="0"/>
<stop offset="0.119535" stop-color="#F7F8FC" stop-opacity="0.466594"/>
<stop offset="0.275284" stop-color="#F7F8FC" stop-opacity="0.1"/>
<stop offset="0.525208" stop-color="#F7F8FC"/>
<stop offset="0.821602" stop-color="#F7F8FC" stop-opacity="0"/>
<stop offset="1" stop-color="#F7F8FC" stop-opacity="0"/>
</linearGradient>
<linearGradient id="paint2_linear_1_21" x1="160.877" y1="5.83966" x2="160.877" y2="23.8314" gradientUnits="userSpaceOnUse">
<stop stop-color="#415EED"/>
<stop offset="1" stop-color="#3651DA"/>
</linearGradient>
<linearGradient id="paint3_linear_1_21" x1="150.992" y1="23.8314" x2="170.762" y2="5.83966" gradientUnits="userSpaceOnUse">
<stop stop-color="#F7F8FC" stop-opacity="0"/>
<stop offset="0.119535" stop-color="#F7F8FC" stop-opacity="0.466594"/>
<stop offset="0.275284" stop-color="#F7F8FC" stop-opacity="0.1"/>
<stop offset="0.525208" stop-color="#F7F8FC"/>
<stop offset="0.821602" stop-color="#F7F8FC" stop-opacity="0"/>
<stop offset="1" stop-color="#F7F8FC" stop-opacity="0"/>
</linearGradient>
<linearGradient id="paint4_linear_1_21" x1="160.877" y1="5.83966" x2="160.877" y2="23.8314" gradientUnits="userSpaceOnUse">
<stop stop-color="#415EED"/>
<stop offset="1" stop-color="#3651DA"/>
</linearGradient>
<linearGradient id="paint5_linear_1_21" x1="150.992" y1="23.8314" x2="170.762" y2="5.83966" gradientUnits="userSpaceOnUse">
<stop stop-color="#F7F8FC" stop-opacity="0"/>
<stop offset="0.119535" stop-color="#F7F8FC" stop-opacity="0.466594"/>
<stop offset="0.275284" stop-color="#F7F8FC" stop-opacity="0.1"/>
<stop offset="0.525208" stop-color="#F7F8FC"/>
<stop offset="0.821602" stop-color="#F7F8FC" stop-opacity="0"/>
<stop offset="1" stop-color="#F7F8FC" stop-opacity="0"/>
</linearGradient>
</defs>
</svg>
