<svg width="17" height="16" viewBox="0 0 17 16" fill="none" xmlns="http://www.w3.org/2000/svg">
<path d="M2.64786 12.2129L3.23029 13.2189C3.35131 13.4307 3.52528 13.5971 3.72951 13.7181L5.8096 10.1177H1.64941C1.64941 10.3522 1.70993 10.5866 1.83095 10.7984L2.64786 12.2129Z" fill="#0066DA"/>
<path d="M8.25277 5.88219L6.17267 2.28174C5.96845 2.40276 5.79447 2.56917 5.67345 2.78096L1.83095 9.43726C1.71215 9.64448 1.64957 9.87916 1.64941 10.118H5.8096L8.25277 5.88219Z" fill="#00AC47"/>
<path d="M12.7762 13.7181C12.9804 13.5971 13.1544 13.4307 13.2754 13.2189L13.5175 12.8029L14.6748 10.7984C14.7958 10.5866 14.8563 10.3522 14.8563 10.1177H10.6958L11.5811 11.8574L12.7762 13.7181Z" fill="#EA4335"/>
<path d="M8.25295 5.88209L10.333 2.28163C10.1288 2.16061 9.89433 2.1001 9.65228 2.1001H6.85361C6.61156 2.1001 6.37708 2.16817 6.17285 2.28163L8.25295 5.88209Z" fill="#00832D"/>
<path d="M10.6959 10.1177H5.80959L3.72949 13.7181C3.93372 13.8392 4.1682 13.8997 4.41025 13.8997H12.0953C12.3373 13.8997 12.5718 13.8316 12.776 13.7181L10.6959 10.1177Z" fill="#2684FC"/>
<path d="M12.7535 6.10911L10.8322 2.78096C10.7112 2.56917 10.5373 2.40276 10.333 2.28174L8.25293 5.88219L10.6961 10.118H14.8487C14.8487 9.88353 14.7882 9.64905 14.6672 9.43726L12.7535 6.10911Z" fill="#FFBA00"/>
</svg>
