<svg width="101" height="100" viewBox="0 0 101 100" fill="none" xmlns="http://www.w3.org/2000/svg">
<path fill-rule="evenodd" clip-rule="evenodd" d="M76.6483 6.2252C79.5917 10.0848 81.1208 26.9727 79.191 34.3226C79.1251 34.5763 78.6584 36.4925 78.1539 38.5812C77.6502 40.6698 76.9697 43.0373 76.642 43.8416C76.1392 45.0781 76.0932 45.3679 76.3468 45.7118C76.5111 45.9356 77.0879 46.7272 77.6277 47.471C78.1674 48.2147 78.9689 49.2897 79.4094 49.8593C82.9179 54.4012 84.0786 56.4402 84.2826 58.4187C84.4081 59.6273 84.094 61.2187 83.6806 61.4741C83.4874 61.5932 79.4699 57.2111 77.9914 55.2677C76.9507 53.9012 76.6212 53.4878 75.7872 52.5048C75.4415 52.0978 74.8178 51.1545 74.4017 50.409C72.8465 47.6217 68.0852 47.1767 64.2176 49.4585C58.2062 53.0031 56.5074 55.8147 53.5117 67.1822C53.1633 68.5054 53.0504 68.5461 49.9545 68.4549L47.66 68.3872L47.0264 65.7407C46.6771 64.2848 46.3332 62.7946 46.2619 62.4291C44.2473 52.1609 30.8895 43.4598 27.4596 50.1806C26.5218 52.0183 19.4137 60.7935 18.3116 61.475C17.9271 61.7124 17.3783 60.2917 17.3783 59.0623C17.3783 57.156 18.6835 54.5294 21.3047 51.159C22.0087 50.2546 23.146 48.7373 23.832 47.7878C24.5171 46.8382 25.1588 46.0268 25.2563 45.9844C25.574 45.8472 25.4458 45.1332 24.8312 43.6267C20.5257 33.0761 20.4634 15.7198 24.7003 7.0484C25.658 5.08973 27.6735 5.72878 32.6848 9.58113C38.1871 13.8108 39.523 15.3678 40.283 18.4412C40.5023 19.3275 40.7587 20.1561 40.8534 20.2825C41.1423 20.6715 41.7588 22.7403 42.0196 24.1953C42.155 24.9553 42.479 26.302 42.739 27.1875C42.9989 28.0738 43.4484 29.8863 43.7373 31.2158C44.0261 32.5454 44.5812 34.8723 44.9702 36.3869C45.3593 37.9015 45.7312 39.7112 45.7979 40.408C45.8638 41.1049 46.2186 43.0762 46.5859 44.7893C46.9533 46.5016 47.3622 48.5758 47.4949 49.3989C47.9019 51.9371 48.402 54.6783 49.0266 57.7996C49.356 59.4459 49.8579 61.975 50.1413 63.4219L50.6576 66.0512L51.2804 63.0401C51.6225 61.3847 51.9032 59.751 51.9032 59.4107C51.9032 59.0704 52.3085 56.9637 52.8031 54.7289C53.2977 52.4931 53.7599 50.3025 53.8303 49.8593C53.8998 49.4161 54.324 47.2552 54.7717 45.0583C55.2203 42.8604 55.6373 40.6608 55.6987 40.1706C55.7601 39.6805 56.0092 38.4755 56.2511 37.4917C56.4939 36.5087 56.9172 34.6683 57.1916 33.402C57.4669 32.1365 58.0031 29.9098 58.384 28.4538C58.764 26.9979 59.2207 25.171 59.3985 24.3939C59.5763 23.6167 60.0222 22.1662 60.3896 21.1698C60.7569 20.1733 61.2859 18.5107 61.5657 17.4745C62.4114 14.3406 69.4897 8.01328 74.418 5.98602C74.5013 5.95171 74.5801 5.91912 74.6547 5.88824L74.6567 5.88744C75.4185 5.57232 75.7416 5.43868 75.9868 5.52531C76.1673 5.58907 76.3057 5.77217 76.5459 6.09003C76.5781 6.13266 76.6121 6.17771 76.6483 6.2252ZM74.3069 61.9245C78.5005 66.0747 78.5068 66.0882 76.2431 66.2652C71.8952 66.6054 63.5505 72.643 57.0003 80.1907C55.6752 81.717 55.3178 82.0148 55.2041 81.6863C55.1255 81.4615 54.7473 80.5075 54.3646 79.5679C53.3293 77.0279 53.4006 76.4547 55.168 73.0871C56.9948 69.6057 59.0393 66.4827 60.571 64.83C60.868 64.5105 61.1099 64.1594 61.1099 64.0501C61.1099 63.1376 66.3739 58.7771 67.9471 58.3854C70.0674 57.8582 70.3679 58.0252 74.3069 61.9245ZM33.9503 58.9188C36.2609 60.0119 39.8263 63.736 42.4655 67.8122C43.3257 69.1418 44.3619 70.6852 44.7681 71.2431C45.7131 72.541 47.5896 76.9909 47.447 77.5938C47.2773 78.3096 46.6365 80.0219 46.1184 81.1447L45.6481 82.1629L45.037 81.3749C43.295 79.1283 39.7351 75.5287 37.0679 73.3146C35.4161 71.9444 33.7029 70.521 33.2598 70.1518C31.0005 68.2662 26.5263 66.2011 24.7039 66.2011C23.146 66.2011 23.4908 65.4546 26.1436 63.0907C27.419 61.9534 29.0265 60.4135 29.7152 59.6698C31.1052 58.1678 32.0187 58.0063 33.9503 58.9188ZM22.9772 70.41C24.3916 71.3956 26.5849 72.8976 27.8513 73.7478C36.2266 79.3729 43.5739 85.3428 43.0314 86.082C42.9737 86.1605 42.9953 86.1741 43.0784 86.1118C43.1623 86.0495 44.1931 86.9305 45.3701 88.0687C46.5462 89.2068 47.6952 90.1402 47.9227 90.1411C48.1502 90.1429 48.5726 90.2078 48.8614 90.2855C49.2631 90.3929 49.0925 90.1194 48.1366 89.1247C46.8251 87.7591 46.3585 86.7545 46.8838 86.4259C48.1772 85.6172 53.5631 85.7155 54.4116 86.564C54.8638 87.0162 54.0911 88.6554 52.9873 89.5841C52.1677 90.2737 52.2236 90.3676 53.2842 90.0833C53.8926 89.919 54.9604 88.9668 57.651 86.1849C60.6053 83.1305 63.9919 80.1961 65.9713 78.9748C66.1762 78.8485 67.2639 78.0939 68.3876 77.2987C69.5123 76.5026 71.4159 75.173 72.6182 74.3426C73.8204 73.5131 75.6591 72.2233 76.7034 71.4777C77.7477 70.7322 78.6106 70.2493 78.6205 70.4054C78.6341 70.6166 78.6693 70.613 78.7577 70.3919C78.9455 69.9243 82.0866 67.805 82.3501 67.9675C82.4801 68.0478 82.5171 68.0018 82.4323 67.8646C82.3474 67.7274 82.4873 67.5487 82.7437 67.4674C82.9991 67.3862 83.5325 67.0477 83.9279 66.7147L84.6473 66.109L84.548 68.1868C84.4171 70.9344 83.8133 71.9516 81.3509 73.5718C80.3942 74.2018 79.4401 74.7172 79.2298 74.7172C79.0204 74.7172 78.5086 75.0115 78.0925 75.3707C77.6764 75.7299 76.5599 76.5188 75.6103 77.1236C74.6608 77.7274 73.5578 78.4441 73.1597 78.714C70.1883 80.7295 68.4174 81.986 65.7132 83.9979C64.0045 85.2688 62.0359 86.7283 61.34 87.2401C60.6441 87.7518 58.764 89.3395 57.1618 90.7684C51.7687 95.5793 49.9662 95.6768 45.112 91.4173C42.5043 89.1292 35.7853 84.0015 32.6848 81.9327C31.5448 81.1727 30.3543 80.3748 30.0374 80.1591C25.1913 76.8609 24.8384 76.6163 23.8139 75.8401C23.3762 75.5079 22.3183 74.9068 21.4635 74.5042C20.6097 74.1025 19.9101 73.6828 19.9101 73.5736C19.9101 73.4635 19.5653 73.1611 19.1447 72.9003C17.8802 72.1195 17.0777 70.3513 16.9595 68.0857L16.8584 66.1668L18.6311 67.3925C19.6069 68.0668 21.5619 69.4243 22.9772 70.41ZM74.2293 10.8998C69.4509 12.8062 64.5587 19.1019 62.9367 25.4319C62.6984 26.3607 62.5324 26.6161 62.1596 26.6306C61.8987 26.6405 61.7976 26.6956 61.9357 26.7524C63.4494 27.3788 71.0106 23.4001 73.6282 20.5993C75.4641 18.6352 75.6157 18.1966 75.5832 14.939C75.5435 11.0407 75.3476 10.454 74.2293 10.8998ZM27.344 20.1236C25.9991 18.8654 25.2211 12.5886 26.214 11C26.492 10.5541 27.4117 10.8448 28.8622 11.8376C29.5446 12.3052 30.3001 12.8025 30.5393 12.9433C30.7794 13.0841 31.2045 13.4136 31.4843 13.6763C31.765 13.938 32.2786 14.2611 32.627 14.3929C33.0133 14.5391 33.2598 14.8036 33.2598 15.0726C33.2598 15.3154 33.4746 15.7577 33.7372 16.0573C34.0008 16.3561 34.1479 16.4446 34.0658 16.255C33.9837 16.0655 34.0875 16.1169 34.2969 16.3696C34.74 16.9067 37.6058 22.7123 38.3054 24.4922C39.18 26.7172 39.0265 26.8436 36.2853 26.1431C34.5288 25.6945 30.1403 22.7403 27.344 20.1236ZM28.9742 42.1844C28.2656 43.3488 26.6942 37.081 26.2014 31.122C26.1909 30.9956 26.1807 30.8775 26.1713 30.7674C26.1045 29.9906 26.0718 29.6105 26.2112 29.5305C26.3448 29.4539 26.6364 29.6527 27.2072 30.0421C27.2915 30.0995 27.3818 30.1611 27.4785 30.2266C27.9064 30.5154 29.7188 31.4623 31.506 32.3288C33.2932 33.1962 34.9612 34.1385 35.213 34.4228L35.6707 34.94L34.9829 35.4319C33.7228 36.3346 29.9616 40.5606 28.9742 42.1844ZM74.3999 29.9883C74.6842 29.8411 74.9171 29.6417 74.918 29.5469C74.9189 29.4521 75.0751 29.3745 75.2655 29.3745C75.7403 29.3745 75.7078 29.9648 75.0354 33.6104C74.7185 35.3236 74.4595 36.9673 74.4595 37.2633C74.4595 38.4511 72.4737 42.7674 72.2309 42.1085C71.9511 41.3512 69.0294 37.8076 67.5708 36.4564C67.4316 36.3276 67.3001 36.2086 67.1776 36.0979C66.5798 35.5573 66.1977 35.2118 66.1965 34.8649C66.1943 34.2503 67.3875 33.6316 70.6945 31.9167C71.0768 31.7184 71.4874 31.5055 71.9277 31.2763L73.0096 30.7127C73.6677 30.3699 74.2134 30.0857 74.3999 29.9883Z" fill="#7E839D"/>
</svg>
