<svg width="101" height="100" viewBox="0 0 101 100" fill="none" xmlns="http://www.w3.org/2000/svg">
<path d="M39.9229 2.05988C39.4915 2.24915 38.1556 2.89071 36.9548 3.48433C35.7528 4.07919 34.4832 4.59784 34.1342 4.6384C33.7839 4.67896 32.2992 5.21358 30.8342 5.82564C29.3692 6.43893 27.9239 7.02026 27.6215 7.11858C27.1287 7.27836 27.0734 7.82405 27.0734 12.5804C27.0734 17.8579 27.0721 17.8652 26.3101 18.2733C25.2507 18.8411 25.027 19.6179 24.2773 25.3353C23.916 28.0933 23.2904 31.6796 22.8873 33.3044L22.1548 36.2577L22.8443 38.1615C24.1778 41.8437 24.2872 42.3783 24.1151 44.3657C24.0205 45.4484 23.9221 47.4616 23.8963 48.8406C23.8693 50.2196 23.7697 51.4879 23.6726 51.6575C23.4428 52.0643 23.6186 54.0406 23.9393 54.6392C24.4015 55.5032 27.0783 72.5474 27.565 77.7253L27.7752 79.9695L31.1071 80.2055C32.9396 80.3345 34.9908 80.4525 35.6655 80.4673C37.1465 80.5005 37.3002 80.8323 36.8245 82.9659C36.3526 85.0786 34.9859 92.3791 34.7634 93.9707C34.557 95.4517 33.999 96.9412 33.4336 97.5189C32.6089 98.362 33.0723 98.4886 34.6725 97.8581C35.5771 97.5017 36.4644 97.0887 36.6439 96.94C37.0507 96.6008 46.1308 92.561 46.4823 92.561C46.6248 92.561 46.91 92.3582 47.1152 92.1099C47.3217 91.8616 47.6916 91.7351 47.9374 91.8297C48.1832 91.9243 48.3848 91.8457 48.3848 91.6539C48.3848 91.4634 48.5716 91.3074 48.799 91.3074C49.0276 91.3074 50.7556 90.5466 52.6385 89.6162C54.5226 88.6858 57.3322 87.3327 58.8844 86.6088C60.4355 85.8836 63.8497 84.2306 66.4713 82.9352L71.2387 80.5791L70.6266 79.3784L70.0133 78.1776L70.6684 77.7179C71.4083 77.2005 71.2473 75.9506 70.4398 75.9506C69.9236 75.9506 69.8609 69.7661 70.339 66.0335C70.4693 65.0245 70.6598 62.8577 70.763 61.2206C71.0162 57.2336 71.058 57.1292 72.9274 55.8854C75.8758 53.9226 77.0741 52.4109 77.712 49.8472C77.9357 48.95 78.3572 47.4382 78.6473 46.4907C79.5924 43.4058 79.5875 42.2419 78.6178 40.7769C77.6985 39.3881 77.5817 33.576 78.4285 31.3895C78.7014 30.6853 78.5514 30.0278 77.5055 27.3436C76.2163 24.0362 75.2146 20.4511 74.8791 17.9427C74.6517 16.238 74.1908 15.755 69.2268 12.0028C67.3304 10.5697 65.0026 8.74336 64.055 7.94327C61.6289 5.89816 60.8005 5.44096 59.2777 5.30207C58.544 5.2357 57.2388 5.10666 56.3772 5.01448C55.5144 4.92353 53.8221 4.75638 52.6164 4.64577C51.4095 4.53393 49.7269 4.24265 48.8764 3.99807C45.9513 3.15741 45.9243 3.38355 48.6331 5.98296C50.8797 8.13991 52.2354 9.38369 57.0028 13.662C58.6239 15.1171 58.5944 15.1343 53.5 15.6432C51.117 15.8816 48.3578 16.1692 47.3659 16.2835C46.105 16.4297 45.5642 16.3843 45.5642 16.1348C45.5642 15.9381 45.7252 15.7771 45.9218 15.7771C46.3741 15.7771 50.5786 12.396 50.5786 12.031C50.5786 11.8823 48.8408 9.99329 46.7158 7.83511C44.592 5.6757 42.5113 3.40813 42.0934 2.79362C41.2736 1.59162 41.1151 1.53754 39.9229 2.05988ZM44.6596 7.39388L48.0763 10.9188L47.1668 11.7029C44.3536 14.1265 41.2478 16.0905 40.2253 16.0905C40.036 16.0905 40.3666 15.4908 40.9602 14.7583C41.5538 14.0257 42.1339 13.1224 42.247 12.75C42.3613 12.3776 42.66 11.902 42.9119 11.693C43.5817 11.1375 43.481 10.8364 42.4486 10.3018L41.5268 9.82614L39.7705 12.4931C37.2522 16.3179 36.2825 17.3441 35.1899 17.3441C34.069 17.3441 34.0617 17.467 35.3472 14.7435C37.7254 9.70938 39.2961 6.31357 39.2961 6.20664C39.2961 5.64375 35.4406 8.48035 34.2116 9.94781C32.3103 12.2191 32.0522 12.8447 31.874 15.6198C31.7056 18.2241 31.5852 18.395 30.2701 17.8984L29.2623 17.5187L29.3262 13.4801C29.3778 10.1531 29.4749 9.41073 29.8768 9.26324C30.1447 9.16492 30.4348 8.98671 30.5208 8.8675C30.7433 8.55901 33.8638 7.01043 35.2415 6.52496C35.8806 6.29882 36.9487 5.77279 37.6148 5.35369C38.7369 4.64945 40.342 3.95136 40.9737 3.89237C41.1212 3.87885 42.7792 5.45448 44.6596 7.39388ZM61.1532 8.13745C62.0603 8.7618 62.8014 9.39598 62.8014 9.54715C62.8014 9.94781 62.6846 9.91463 60.4994 8.88225C58.367 7.87444 57.433 7.65444 58.1642 8.3341C59.4289 9.50536 66.2599 14.0233 67.5024 14.5088C69.2206 15.1798 69.2354 15.3654 67.6106 15.8767C66.7761 16.1385 64.8354 16.7886 63.3004 17.3196C61.7641 17.8505 60.2265 18.2844 59.8836 18.2844C59.2409 18.2844 59.5162 18.5363 63.0361 21.1701C64.3192 22.1288 64.3684 22.2308 64.3844 23.9072C64.393 24.8658 64.506 26.6012 64.6363 27.7651C64.7654 28.9278 64.7936 29.8803 64.6978 29.8803C64.4434 29.8791 62.7448 27.1248 61.9964 25.4988L61.3474 24.0915L60.202 25.811C59.5727 26.7561 58.4862 28.3366 57.7894 29.3223L56.521 31.1142L57.6861 32.7697C58.3277 33.6805 59.2826 34.9464 59.8074 35.583C63.4786 40.0309 64.7543 42.7298 63.1848 42.7298C61.839 42.7298 56.0331 46.0187 54.3235 47.7492C51.6565 50.4494 47.4655 56.1115 47.6732 56.7347C47.7838 57.0665 48.6036 56.4975 54.1502 52.2425C54.8581 51.7005 56.1412 50.5932 57.004 49.7832C58.1544 48.7005 58.8844 48.2715 59.7534 48.1683L60.9357 48.027L60.7391 57.2091L60.5424 66.3912L59.7128 67.0979C59.2568 67.4862 58.249 68.0467 57.4735 68.3441C56.698 68.6415 55.2957 69.347 54.3579 69.9111C53.4202 70.4752 52.4959 70.9361 52.3042 70.9361C52.1137 70.9361 51.0887 71.5003 50.028 72.1897C48.9661 72.8792 47.9743 73.4434 47.8231 73.4434C47.672 73.4434 46.7428 74.0075 45.7584 74.697C44.7751 75.3865 43.8841 75.9506 43.7809 75.9506C43.6764 75.9506 42.9894 76.4447 42.2532 77.0481L40.9147 78.1444H35.4038H29.894V76.7777C29.894 76.0268 29.8043 74.7572 29.6949 73.9571L29.4958 72.5031H34.2005C39.1535 72.5031 40.7574 72.0668 39.124 71.1635C38.7885 70.9779 37.6271 69.9787 36.5455 68.9426L34.5779 67.0585L33.1669 67.7443C32.3926 68.1204 31.5483 68.4289 31.2926 68.4289C31.037 68.4289 30.5872 68.7104 30.291 69.0557C29.4073 70.0881 29.2352 69.7944 29.3323 67.41L29.4245 65.1376L35.5353 65.0454C43.186 64.9298 43.6874 64.7467 40.7046 63.1539C38.5599 62.0084 34.5951 59.1866 34.5951 58.8056C34.5951 58.3263 34.0875 58.266 33.8122 58.7134C33.5295 59.1706 31.7732 59.103 31.7781 58.6347C31.7793 58.4197 32.3078 57.9993 32.9531 57.7007C33.5971 57.402 34.7167 56.6757 35.4394 56.087C36.1621 55.4982 36.9228 54.9599 37.1293 54.8911C37.8532 54.6502 37.1797 51.8185 36.3993 51.8185C33.9596 51.8185 30.2197 51.0848 30.5614 50.6731C30.7605 50.4322 30.8502 50.163 30.7605 50.0733C30.672 49.9848 30.3094 50.4002 29.9567 50.9988L29.3164 52.0852L30.4667 52.2499C31.0997 52.3396 32.5708 52.5031 33.736 52.6112C36.1658 52.8386 36.1682 52.9775 33.763 54.3528C32.797 54.9071 31.7769 55.76 31.4979 56.2504C30.8428 57.4032 31.0567 57.4942 28.2115 54.8481C26.0422 52.8312 25.789 52.4822 26.1024 51.9513C26.2979 51.6194 26.6346 50.855 26.8497 50.2515C27.2737 49.0618 30.141 43.5189 31.1894 41.8634C31.5458 41.3005 31.7646 40.6503 31.6761 40.418C31.4377 39.7986 27.9472 37.547 26.2192 36.8981C23.9529 36.0488 23.9627 36.141 25.5309 30.6632C26.025 28.9401 26.4871 27.1776 26.5596 26.7462C26.6973 25.924 28.3516 20.4106 28.5249 20.198C28.5802 20.1304 29.4909 20.3909 30.5491 20.7768C31.7425 21.2119 32.8474 21.4159 33.4557 21.3127C37.0052 20.7129 46.8276 18.6629 50.892 17.6735C51.4955 17.526 52.8351 17.2421 53.87 17.043C59.891 15.8804 59.4191 16.0635 59.2126 14.9672C59.086 14.29 59.1769 13.8611 59.5051 13.5882C60.1479 13.0548 60.1036 12.6689 59.3687 12.396C58.5809 12.1048 55.6595 9.66268 54.6775 8.47421L53.9179 7.55489L55.1998 7.77243C56.1044 7.92483 56.7447 7.84617 57.3703 7.50819C58.7025 6.78551 59.3466 6.89244 61.1532 8.13745ZM72.1777 18.9296C72.6717 20.8543 72.6668 20.8592 70.8454 20.5187C69.0916 20.1918 69.0793 20.2447 70.3231 22.8773C72.1691 26.7843 70.811 26.3407 67.205 21.8572C65.3393 19.5392 65.1242 18.9124 66.1886 18.9099C66.4799 18.9087 67.7765 18.5695 69.0694 18.1565C70.3624 17.7436 71.4992 17.3921 71.5963 17.3749C71.6922 17.3577 71.954 18.0582 72.1777 18.9296ZM75.5636 26.7475C77.7698 30.9999 77.583 31.6956 75.0868 28.5197C72.8487 25.6721 72.4296 24.7724 72.8807 23.7843C73.4116 22.6192 73.4374 22.6474 75.5636 26.7475ZM76.4191 40.2066C78.3056 42.1215 78.3277 42.661 76.7189 47.3731C75.0118 52.3777 74.8766 52.5977 72.6717 53.9902C70.9413 55.0828 70.6709 55.3864 70.4939 56.4335C70.1571 58.4283 70.0158 58.5192 68.1169 57.9551C67.1988 57.6822 65.8371 57.4598 65.0911 57.4598H63.733L64.6867 55.5683C65.6798 53.6031 67.0415 52.449 68.3738 52.4466C69.7909 52.4441 72.6422 50.7124 73.0921 49.5805C75.968 42.3365 75.4862 40.4082 71.3788 42.7261C69.2894 43.9048 69.3275 43.9257 69.8548 41.8916C70.5443 39.2345 70.7434 39.0169 72.598 38.8866C73.5013 38.8227 74.3875 38.7453 74.5657 38.7133C74.7451 38.6814 75.5784 39.3537 76.4191 40.2066ZM67.5209 41.3189C68.702 43.1514 68.0506 45.253 66.1701 45.6795L65.3086 45.8761L65.3123 43.128C65.3147 41.6163 65.4069 40.0444 65.5163 39.6339L65.7154 38.8891L66.3152 39.6339C66.6446 40.0444 67.1878 40.8027 67.5209 41.3189ZM26.8005 40.0272C27.3819 40.2644 28.5568 40.5593 29.411 40.6835C30.6253 40.858 30.849 40.9735 30.4323 41.2058C29.8584 41.5266 26.9812 42.4373 26.8915 42.3267C26.6629 42.0452 25.5211 39.5958 25.6182 39.5958C25.687 39.5958 26.2192 39.79 26.8005 40.0272ZM71.5767 46.1625C71.5767 47.4001 70.8048 48.4338 69.3202 49.1859C67.5602 50.0782 67.366 49.7464 68.5004 47.775C69.5365 45.9745 71.5767 44.9052 71.5767 46.1625ZM33.2136 60.1956C34.8716 60.321 35.5353 60.4918 35.5353 60.7954C35.5353 61.0289 35.7012 61.2206 35.9027 61.2206C36.1055 61.2206 35.9396 61.5734 35.5353 62.0035C34.8679 62.7151 34.5631 62.7876 32.266 62.7876C30.8735 62.7876 29.25 62.9265 28.6588 63.0961C27.2467 63.5005 27.2037 63.3972 28.1857 61.963C28.6429 61.2956 29.1418 60.4279 29.2955 60.0322C29.5351 59.4176 29.6691 59.366 30.2332 59.6671C30.5946 59.8613 31.9367 60.0985 33.2136 60.1956ZM67.0809 60.6725C67.6032 61.5156 67.0526 71.5285 66.2132 76.4557L65.8862 78.3706L60.4588 81.0781C57.4735 82.5677 54.911 83.7857 54.7635 83.7869C54.6172 83.7881 53.4386 84.3203 52.1457 84.9692C50.8527 85.6182 49.0927 86.4293 48.2324 86.7698C47.3733 87.1114 45.3479 88.0627 43.7317 88.8862L40.7918 90.3831L41.002 89.513C41.1188 89.0349 41.8906 87.4445 42.7177 85.9795C43.5449 84.5145 44.3253 82.9856 44.4531 82.5812C44.5797 82.1781 45.0935 81.0228 45.5949 80.0138C46.0951 79.0047 46.5044 78.0363 46.5044 77.8605C46.5044 77.3787 47.7039 76.3599 48.976 75.7625C49.5991 75.4688 50.9117 74.6871 51.8937 74.0235C52.8757 73.3598 53.7827 72.8166 53.9105 72.8166C54.0384 72.8166 54.4759 72.5031 54.8839 72.1197C55.4763 71.5629 55.6791 71.5089 55.8893 71.8481C56.0945 72.1811 56.1916 72.1455 56.3391 71.6797C56.4424 71.354 56.7914 70.9472 57.1146 70.7764C62.2594 68.054 62.0898 68.2101 62.4794 65.8209C62.7166 64.3608 63.1185 62.9019 63.8989 60.6725C63.98 60.4377 64.5982 60.2804 65.4364 60.2804C66.2205 60.2804 66.9457 60.4537 67.0809 60.6725Z" fill="#7E839D"/>
<path d="M41.3334 34.273C36.8855 35.4074 34.1854 36.0011 33.8892 35.9089C33.5278 35.7958 33.577 35.9445 34.7483 38.5157L35.8433 40.9172L35.2018 41.8168C34.849 42.3121 34.3218 42.8517 34.0293 43.0164C33.5303 43.2966 33.5315 43.3273 34.0354 43.5215C34.3513 43.6432 34.9314 43.4773 35.4451 43.1159C35.9257 42.7792 36.8376 42.3355 37.473 42.129C38.1084 41.9225 38.6885 41.5858 38.761 41.3805C38.8532 41.1212 39.3215 41.2343 40.2924 41.7529C42.3031 42.8259 45.9251 42.6194 47.6089 41.3351C48.8907 40.3567 48.8342 40.2363 46.7387 39.4657C44.5559 38.6619 44.9074 38.3436 47.9923 38.3313C49.6404 38.3252 51.0293 38.1568 51.4717 37.911L52.2091 37.5029L50.8621 36.5123C50.121 35.9679 49.359 35.5217 49.1673 35.5217C48.9768 35.5217 48.3426 35.0277 47.7576 34.4242C46.4609 33.087 46.0234 33.0772 41.3334 34.273ZM46.9267 35.4689C47.6642 36.2837 47.3077 36.4619 44.9369 36.4619C42.3068 36.4619 42.0192 36.1891 43.9168 35.4947C45.8624 34.7831 46.3012 34.7794 46.9267 35.4689Z" fill="#7E839D"/>
</svg>
