<svg width="101" height="100" viewBox="0 0 101 100" fill="none" xmlns="http://www.w3.org/2000/svg">
<path d="M36.2265 0.102524C35.6563 0.321026 33.4276 2.0191 31.1697 3.95336C30.6401 4.40701 29.8889 4.94494 29.4998 5.14783C29.1106 5.35073 28.2616 6.29237 27.6134 7.24129C25.7114 10.0246 25.0642 9.5959 24.2526 5.01361C23.8926 2.9805 22.8095 0.6082 22.2403 0.6082C21.9032 0.6082 21.8428 0.77364 21.9708 1.35423C22.2934 2.82131 22.1654 7.62626 21.7648 9.09855C21.5474 9.90076 20.8055 12.2294 20.1177 14.2718C18.7068 18.4629 18.4165 20.6531 18.9087 23.4062C19.2187 25.1418 20.4902 27.615 20.8752 27.23C21.0292 27.076 21.0719 27.2175 21.0479 27.8096C21.0448 27.8845 21.1624 28.0936 21.3091 28.2736C21.4558 28.4526 21.8709 28.9697 22.232 29.4213C23.826 31.4148 27.2378 32.1047 30.2728 31.0455C30.893 30.8291 31.4007 30.6896 31.4007 30.7364C31.4007 31.4211 28.3188 36.4269 27.8974 36.4269C27.3876 36.4269 24.1662 34.5862 22.4224 33.2992C19.3779 31.0507 16.5374 25.9357 16.5416 22.7122C16.5437 21.3596 16.064 21.4376 15.8528 22.8236C14.9288 28.8802 21.0583 37.0397 28.2491 39.3246L29.2095 39.6295L28.812 40.748C28.5935 41.3629 28.4 42.5792 28.3823 43.4522L28.35 45.0379L29.8088 46.0243C31.2946 47.0283 31.9584 47.3082 35.2484 48.3196C38.8589 49.4298 40.43 49.7159 42.4923 49.6379L44.5348 49.5598L44.5909 35.3094C44.6232 27.4714 44.5535 20.9996 44.437 20.9268C43.9698 20.6386 36.5574 28.5764 34.9176 31.1204C34.0248 32.5063 32.9469 34.1784 32.5224 34.8349C31.639 36.2032 30.9616 36.4206 31.0792 35.299C31.1937 34.2044 32.8845 30.4066 34.0696 28.5816C35.2505 26.7628 35.4534 25.8795 34.5836 26.3456C33.8844 26.7191 32.1572 26.2728 30.7421 25.3519C30.1615 24.9732 29.5476 24.6642 29.3791 24.6642C29.2095 24.6642 28.6122 23.8786 28.0504 22.9193C26.2191 19.7885 26.6416 16.7659 29.3468 13.6538C29.9659 12.9411 30.6516 12.1326 30.8711 11.8558C32.1166 10.2889 34.7584 5.44021 34.904 4.45487C34.9883 3.88885 35.0195 3.83578 36.0319 2.56847C37.3773 0.887051 37.4761 -0.376099 36.2265 0.102524Z" fill="#7E839D"/>
<path d="M79.159 0.88913C79.159 1.04416 79.0393 1.09618 78.8937 1.00566C78.748 0.91618 78.6273 1.05769 78.6273 1.32197C78.6263 1.58625 78.0894 2.9368 77.4349 4.32272C76.7794 5.70865 76.2425 6.97908 76.2415 7.14556C76.2415 7.31203 76.0271 7.92592 75.766 8.50963L75.2905 9.56988L74.5153 9.16409C74.0898 8.94039 72.9005 8.11633 71.8725 7.33284C66.206 3.00859 63.2562 3.03669 67.5129 7.37342C68.5159 8.39518 69.6063 9.6063 69.9361 10.0652C70.266 10.524 71.0859 11.5988 71.7591 12.4531C73.2511 14.3499 74.0689 15.9127 74.2656 17.2455C74.3478 17.7991 74.4747 18.4619 74.5496 18.7178C75.3258 21.3835 70.754 26.6099 67.6471 26.6099C66.8802 26.6099 66.8407 26.6754 67.2059 27.3434C70.5552 33.4708 71.7684 39.5993 68.5461 34.1139C66.515 30.6553 57.6126 20.5085 56.6096 20.5074C56.3412 20.5074 56.6294 49.2893 56.8999 49.5598C57.3629 50.0228 60.0828 49.7378 63.3728 48.8804C65.1239 48.4247 67.0124 47.9408 67.569 47.8056C68.6761 47.5371 71.4334 46.2147 72.5925 45.3958C73.5268 44.7361 73.5966 42.9985 72.7579 41.2661C72.1264 39.9624 72.1711 39.8792 73.8525 39.2289C78.5909 37.3976 83.0015 32.9693 84.7464 28.2913C85.8046 25.456 86.1157 21.1734 85.224 21.7248C85.0793 21.8143 85.0232 22.0515 85.0991 22.2513C85.2968 22.7663 84.3073 26.3914 83.528 28.0052C83.168 28.7522 82.8735 29.4639 82.8735 29.5888C82.8735 30.3692 77.8782 34.4645 75.3175 35.7828L73.8099 36.559L72.8786 35.4977C72.3657 34.914 71.7029 33.9588 71.4053 33.3751C71.1077 32.7914 70.6333 31.9861 70.3503 31.5844C69.7468 30.7271 69.7749 30.7146 70.96 31.3066C73.7121 32.6821 77.0426 31.7124 79.7094 28.7574C80.574 27.7992 81.2816 26.8794 81.2816 26.7129C81.2816 26.5454 81.4501 26.2696 81.6561 26.099C83.2616 24.7661 83.0764 18.2662 81.3055 13.8431C79.7167 9.87682 79.0778 6.66069 79.2412 3.46016C79.3213 1.89215 79.3359 0.608196 79.2734 0.608196C79.21 0.608196 79.159 0.735138 79.159 0.88913Z" fill="#7E839D"/>
<path d="M46.7896 35.0679V53.0777L47.5189 53.3701C48.9194 53.9298 52.5372 53.8435 53.3581 53.2306L54.0865 52.6875L54.1572 34.8723L54.228 17.0582H50.5093H46.7896V35.0679Z" fill="#7E839D"/>
<path d="M72.2502 50.1724C71.7456 50.3899 70.4751 50.9674 69.4274 51.4554C68.3796 51.9434 66.9167 52.473 66.1769 52.6322C65.4371 52.7903 64.8315 52.9682 64.8315 53.0255C64.8315 53.3251 66.2965 56.0605 66.4568 56.0605C66.5598 56.0605 66.8542 55.4935 67.1102 54.8005C67.6367 53.373 68.1965 52.6113 68.7198 52.6113C69.2734 52.6113 69.16 54.4925 68.4992 56.2499C67.722 58.3174 67.7314 58.8449 68.5731 60.7032C69.419 62.5729 69.4513 62.5115 69.8019 58.3153L70.0236 55.662L70.4335 56.5912C70.9069 57.665 71.8704 61.4513 72.1378 63.2909C72.3261 64.5883 71.9869 64.9671 71.2753 64.2554C70.6416 63.6217 70.3711 64.3324 70.4283 66.4862C70.497 69.1197 70.0808 69.462 69.4492 67.2894C69.0257 65.8307 67.8344 63.5822 67.6065 63.8101C67.5482 63.8683 67.4421 65.222 67.3703 66.8202C67.2361 69.8053 67.0072 71.7531 66.2508 76.3458C65.3664 81.7189 66.2102 88.6953 67.7449 88.6953C68.3921 88.6953 68.4992 87.8119 68.1496 85.3783C68.0029 84.3575 67.9686 82.7458 68.0747 81.7969C68.1798 80.848 68.3286 78.4081 68.4046 76.3729C68.4805 74.3387 68.6574 72.5585 68.7979 72.418C69.265 71.9508 69.8727 72.7811 69.8727 73.8871C69.8727 76.1408 70.5126 76.4249 72.0213 74.8392C73.2824 73.5136 73.812 70.8593 72.9567 70.1497C72.1565 69.4859 72.681 67.7348 73.6798 67.7348C75.0564 67.7348 75.637 69.5452 74.4997 70.2902C73.8224 70.7334 73.8203 70.747 73.9587 73.6791C74.2438 79.7617 74.354 81.0779 74.6027 81.3266C74.9138 81.6377 75.8388 81.492 75.8513 81.13C75.8565 80.9864 76.1666 80.3902 76.5411 79.8065C77.6888 78.0179 77.9999 77.2281 78.3443 75.2304L78.6762 73.3076L77.3257 70.7803C76.5828 69.3902 75.9751 68.0219 75.9751 67.741C75.9751 66.9586 75.2145 64.2148 74.9149 63.9152C74.7682 63.7684 74.6485 63.3148 74.6485 62.9059C74.6485 61.9101 75.2374 61.9476 76.0584 62.9964L76.7097 63.8288L77.1623 63.14C77.7575 62.2306 77.5463 61.341 76.2082 59.1216C75.6234 58.153 75.1833 57.1156 75.2291 56.817L75.3123 56.2728L76.0136 56.8274C77.411 57.9313 77.1582 55.7089 75.6526 53.6425C75.1864 53.0026 74.4362 51.8705 73.9868 51.1287L73.1689 49.7781L72.2502 50.1724ZM74.5299 57.0469C75.2801 58.7419 75.3144 58.9791 74.8119 58.9791C74.3676 58.9791 73.608 57.4569 73.3947 56.1386C73.1731 54.7755 73.7183 55.2115 74.5299 57.0469Z" fill="#7E839D"/>
<path d="M28.2732 50.29C28.1223 50.4721 27.5043 51.576 26.8998 52.7434C26.2953 53.9109 25.6002 55.1917 25.3536 55.5892C24.618 56.7753 25.5045 57.5057 26.4003 56.4517C28.5469 53.9254 29.4875 54.5393 28.0287 57.514C26.9903 59.6325 26.2547 59.5648 27.0111 57.4204C27.4918 56.0595 27.3077 55.9793 26.7531 57.307C26.5273 57.847 25.9342 58.6971 25.4348 59.1965C24.4005 60.2308 23.8168 62.3148 24.0967 63.9713C24.4005 65.7744 24.6294 65.6995 25.5638 63.4895C26.4773 61.3295 26.5439 61.2504 27.2473 61.521C27.6021 61.6562 27.6042 61.8185 27.265 62.9142C27.0548 63.5957 26.7687 64.6393 26.6303 65.2334C26.3733 66.3374 24.7918 69.8365 23.5827 71.9757C22.1937 74.4334 24.567 81.5315 26.777 81.5315C27.3649 81.5315 27.9694 75.9577 27.4502 75.3323C27.213 75.0452 27.2255 74.9286 27.5064 74.8204C28.0703 74.604 28.2982 70.7584 27.7925 69.9863C26.9362 68.6805 28.5573 67.3175 29.6571 68.4173C30.2168 68.9771 30.1846 69.2632 29.4531 70.2298C28.1026 72.0153 28.2482 74.2149 29.7882 75.2824C31.2584 76.301 31.4946 76.1907 32.0564 74.2284C33.0386 70.7948 33.2072 71.7926 33.3581 81.929C33.4496 88.0616 33.5235 89.1052 33.8679 89.1739C34.2935 89.2602 34.5401 88.9928 34.7336 88.2322C34.7981 87.9763 35.0978 86.8713 35.3985 85.7767C35.9582 83.7415 35.9811 81.0706 35.4879 75.5612L35.3215 73.704L36.2132 73.3242C36.7043 73.114 37.7624 72.7894 38.5646 72.6011C39.9797 72.2702 39.937 72.2629 37.1662 72.394C34.7294 72.5085 34.2862 72.4668 34.1488 72.11C33.9282 71.5356 34.102 71.4191 35.567 71.16C36.2673 71.0362 38.3638 70.1559 40.2273 69.2028C43.6235 67.4642 44.8825 67.1406 45.9729 67.7233C46.233 67.8627 47.08 68.2269 47.8551 68.5317L49.2629 69.0873L48.2318 67.947C47.6658 67.3196 46.9894 66.5621 46.7314 66.2645C46.3308 65.8046 45.8969 65.7141 43.8368 65.659C42.505 65.6225 41.2012 65.48 40.9411 65.3406C40.553 65.1325 40.2991 65.3135 39.5313 66.3446C35.9988 71.0903 35.8094 71.2796 35.542 70.3328C34.0833 65.1689 33.6858 63.0151 33.3924 58.6659C33.306 57.3986 33.1229 55.6672 32.9835 54.8182C32.6589 52.8392 32.6568 52.8766 33.1292 52.8766C33.5818 52.8766 34.5827 54.3666 34.5838 55.0439C34.5848 55.3571 34.9261 55.1636 35.7522 54.3801C37.1402 53.066 37.1205 53.0004 35.2361 52.6092C34.4318 52.4417 32.6589 51.7768 31.2969 51.1317C28.4948 49.8041 28.6405 49.8446 28.2732 50.29ZM31.6454 56.2592C32.8191 60.2151 33.0168 61.5771 32.9419 65.2355C32.9023 67.1937 32.791 68.796 32.6963 68.796C32.3093 68.796 31.7214 66.9356 31.3957 64.683L31.0503 62.2951L30.5519 63.423C30.0691 64.5175 29.7247 64.7933 29.4334 64.3219C29.3553 64.196 29.5426 63.2107 29.8485 62.1328C30.1544 61.0548 30.4281 59.3973 30.4562 58.4484C30.5602 54.9628 30.6101 54.4686 30.8588 54.4686C30.9993 54.4686 31.352 55.2749 31.6454 56.2592Z" fill="#7E839D"/>
<path d="M38.6601 55.25C37.7049 55.4799 35.6042 57.1207 35.7488 57.5234C35.8508 57.8054 38.9056 62.4782 39.9472 63.9463C40.7879 65.1304 40.8638 65.0992 43.4192 62.5604C44.6689 61.3201 45.8623 60.3057 46.0725 60.3057C46.344 60.3057 46.5084 59.8395 46.6364 58.7106C46.8435 56.8804 46.7374 56.5911 45.8592 56.5911C45.5106 56.5911 44.2933 56.3029 43.155 55.9502C40.5007 55.1293 39.6839 55.0023 38.6601 55.25Z" fill="#7E839D"/>
<path d="M59.5489 55.9619C58.4668 56.3167 56.9144 56.633 56.0997 56.6653L54.617 56.7235L54.5348 58.1688C54.4079 60.4017 54.5598 60.6691 56.8051 62.1674C58.7425 63.4596 60.2803 64.9455 59.9859 65.2399C59.9131 65.3127 59.0234 65.4615 58.009 65.5697C56.4701 65.7341 55.9446 65.9287 54.8292 66.7476C52.9075 68.1585 52.6016 68.5767 53.7295 68.2531C55.8396 67.6486 57.085 67.8994 60.4968 69.6183C63.844 71.3049 64.307 71.3725 64.2914 70.1739C64.2789 69.2062 63.8835 68.5653 62.2448 66.8495C60.425 64.9455 60.2627 65.4501 64.6795 59.306C65.7866 57.7651 65.8022 57.8681 64.1967 56.1274C63.2187 55.0671 62.3686 55.0369 59.5489 55.9619Z" fill="#7E839D"/>
<path d="M50.5946 57.0541L48.1651 57.1415L48.0288 59.7188C47.9539 61.1359 47.8134 62.6623 47.7156 63.1097C47.4055 64.5404 50.0931 66.9221 51.4333 66.4028C52.9128 65.8306 54.126 63.6882 53.6474 62.4948C53.4861 62.0932 53.3779 60.6604 53.406 59.3109C53.4351 57.9604 53.3613 56.8814 53.2416 56.9116C53.122 56.9417 51.9316 57.0062 50.5946 57.0541Z" fill="#7E839D"/>
<path d="M54.6606 71.0956C54.5639 71.1924 54.4838 71.9624 54.4838 72.8041C54.4838 73.6469 54.3568 74.4148 54.2007 74.5115C54.0103 74.6291 54.0405 74.8289 54.2933 75.1244C56.4638 77.6632 57.7353 89.3353 56.5085 95.4534C55.9238 98.3636 56.2474 98.5915 58.5437 96.8903C62.15 94.2183 64.0177 90.3758 63.0802 87.554C62.6703 86.321 62.6703 86.1962 63.0698 85.9038C63.5152 85.5781 63.3872 84.7374 62.6588 83.2214C62.3685 82.6169 62.5829 81.5317 62.9918 81.5317C63.1281 81.5317 63.2394 81.1998 63.2394 80.795C63.2394 80.3892 63.4236 79.7951 63.6473 79.4747C64.128 78.789 63.5047 76.9837 62.0918 74.9746C60.5456 72.775 55.5752 70.1811 54.6606 71.0956Z" fill="#7E839D"/>
<path d="M45.3307 71.3642C41.9262 72.1268 41.2613 72.8978 38.5894 79.1751C37.2794 82.2539 37.2565 82.7117 38.3615 83.852L39.2209 84.7385L39.1398 87.4469C39.0441 90.6537 39.35 91.7181 41.0512 94.0998C42.4194 96.0153 44.8271 98.3439 45.2006 98.1119C45.5336 97.9069 45.2214 93.4068 44.8583 93.1696C44.3651 92.847 44.3016 87.1192 44.7615 84.4243C45.443 80.4216 47.2181 76.0058 48.5551 74.9819C48.9016 74.7176 48.8163 74.6396 48.0109 74.4887L47.0547 74.3087V72.747C47.0547 71.0707 46.9642 70.9989 45.3307 71.3642Z" fill="#7E839D"/>
<path d="M51.0576 75.7903C50.7527 76.2835 50.504 76.7913 50.503 76.9203C50.503 77.0483 50.092 77.8349 49.5895 78.6683C45.8489 84.8727 45.7688 90.9366 49.3345 98.0286C50.7985 100.939 51.4374 100.717 52.9918 96.7602C53.9626 94.2901 54.2467 92.9677 54.6545 89.0273C54.8293 87.3366 55.1571 86.9797 55.8105 87.7663C56.338 88.402 56.6804 88.2355 56.4941 87.4354C55.6638 83.8572 52.4716 75.4293 51.787 75.0047C51.6902 74.9444 51.3614 75.2982 51.0576 75.7903Z" fill="#7E839D"/>
<path d="M29.5155 77.485C29.3168 82.701 29.5207 84.0702 30.5425 84.3917C31.069 84.5572 31.6693 82.7655 31.8431 80.5139L32.0013 78.4641L31.0284 77.6099C29.8391 76.5652 29.552 76.5423 29.5155 77.485Z" fill="#7E839D"/>
<path d="M70.8508 77.6204C69.6282 78.5995 69.5887 80.0666 70.7509 81.3984C71.8996 82.7157 72.091 82.5388 72.2741 79.9844C72.4989 76.8588 72.2731 76.4832 70.8508 77.6204Z" fill="#7E839D"/>
</svg>
