<svg width="101" height="100" viewBox="0 0 101 100" fill="none" xmlns="http://www.w3.org/2000/svg">
<path fill-rule="evenodd" clip-rule="evenodd" d="M46.9971 92.2852C48.4312 93.1686 50.1761 94.4727 50.1761 94.6617L50.7939 94.6827C50.7939 94.5858 51.28 94.1756 51.8751 93.7718C53.3657 92.76 55.332 91.3647 55.609 91.1233C55.7349 91.0126 56.0821 90.7655 56.3801 90.5742C57.2328 90.0259 59.8031 88.1824 61.6046 86.8258C64.8233 84.4009 67.5283 82.3975 67.9943 82.0931C68.2543 81.9235 69.5947 80.9036 70.9723 79.8281C73.5555 77.8118 74.3953 77.1722 77.8093 74.6262C80.6985 72.471 84.8547 69.2047 86.4665 67.8231C89.4049 65.3045 89.4728 64.3799 87.5711 52.7504C87.404 51.7314 87.211 50.3877 87.1423 49.7651C87.0729 49.1425 86.8403 47.706 86.6255 46.5731C86.4107 45.441 86.1782 44.0045 86.1079 43.3819C86.0385 42.7593 85.8972 41.7863 85.7946 41.2194C85.6921 40.6534 85.5532 39.5883 85.487 38.8519C85.4208 38.1154 85.1761 36.3091 84.9435 34.8362C84.2951 30.7293 84.2822 30.2933 84.7433 28.0412C86.0974 21.4375 85.9537 20.823 82.32 17.6431C81.6086 17.0205 80.4087 15.9288 79.6545 15.2182C78.9003 14.5076 78.0048 13.7784 77.6656 13.5975C77.3257 13.4167 76.8936 13.1348 76.7063 12.9709C76.3349 12.6455 73.2309 12.5446 72.0971 12.8199C71.1201 13.0581 69.5075 13.9375 68.4384 14.8152C67.1189 15.8997 67.0527 15.7083 68.05 13.6848C69.3597 11.0281 69.8491 10.6591 72.1044 10.6276C74.3565 10.5961 74.0327 9.92749 70.8302 8C65.1584 4.58593 58.8187 4.46965 53.4529 7.68105C51.0135 9.14019 50.8391 9.29764 50.5791 10.2626C50.5671 10.3073 50.5558 10.35 50.545 10.3908C50.4623 10.7044 50.4108 10.8994 50.2943 10.9528C50.1026 11.0408 49.7348 10.7448 48.7615 9.96167L48.5192 9.7668C41.2275 3.91005 34.6077 3.83658 27.9419 9.53828L26.9462 10.391L28.7292 10.5363C30.6954 10.6978 33.1655 11.5239 34.2185 12.3718C35.0849 13.0711 34.8613 13.1397 32.8716 12.782C28.2156 11.9446 24.7038 12.245 23.109 13.6153C21.1872 15.2666 17.2595 19.011 16.5207 19.8944C15.4451 21.1823 15.5404 24.6271 16.7573 28.4376C17.1029 29.5181 17.0415 31.985 16.6184 34.0279C16.3656 35.2464 15.6777 40.3821 15.3652 43.3795C15.2408 44.5681 15.0728 45.6332 14.9905 45.7478C14.9081 45.8625 14.8136 46.28 14.7797 46.6765C14.7458 47.0729 14.6303 47.5615 14.5238 47.7617C14.4164 47.962 14.3728 48.197 14.426 48.2834C14.4793 48.3698 14.3994 49.0868 14.2492 49.8766C14.0982 50.6671 13.8729 52.3313 13.7486 53.5765C13.6234 54.8208 13.4344 56.1637 13.3295 56.5602C12.5422 59.5156 12.4049 64.262 13.0703 65.5484C13.4861 66.3542 16.2033 69.019 18.26 70.6396C22.2079 73.7493 23.1219 74.4574 24.0061 75.0921C24.5593 75.4886 25.3223 76.0748 25.7027 76.3946C26.0822 76.7144 27.459 77.7601 28.7615 78.7178C30.0639 79.6763 31.4504 80.7123 31.8437 81.0191C32.2361 81.3268 33.9561 82.5978 35.6663 83.8429C37.3766 85.0889 39.8629 86.9421 41.1912 87.9611C42.5195 88.981 43.9036 90.017 44.2661 90.2633C44.6287 90.5104 45.2408 90.9739 45.6267 91.2928C46.0127 91.6126 46.6296 92.0591 46.9971 92.2852ZM38.0218 24.157C37.9454 24.0806 38.3054 21.4379 38.452 21.0015C38.6426 20.4343 47.1574 20.7311 48.4498 21.3501C49.0275 21.6275 49.758 21.854 50.0732 21.854C50.6272 21.854 50.6448 21.8988 50.6448 23.2931C50.6448 25.3941 50.3796 25.5829 48.4524 24.8533C44.8921 23.5047 44.4742 23.4678 39.4968 24.0569C38.7216 24.1483 38.0578 24.193 38.0218 24.157ZM66.2116 21.9656C67.1309 24.7839 68.8113 26.3713 72.3058 27.7226L74.3769 28.5242V27.3556V26.1878L72.2645 25.3818C70.1652 24.5802 67.4206 22.97 66.5312 22.0165C66.1001 21.5547 66.0764 21.5511 66.2116 21.9656ZM26.6887 26.3327C28.1303 25.8954 31.6449 24.2 33.4053 23.0937C34.0823 22.6679 34.6591 22.315 34.6854 22.3106C35.0358 22.2482 33.6055 24.5284 32.6942 25.4845C30.8688 27.3994 25.9301 29.3521 25.6763 28.259C25.3409 26.8164 25.3884 26.7278 26.6887 26.3327ZM33.2937 34.2749C31.3894 34.9159 29.2681 35.9001 29.3752 36.0924C29.4367 36.2039 29.5473 36.275 29.6211 36.2504C30.6966 35.8913 35.6441 37.2943 35.6441 37.9572C35.6441 38.3462 38.0692 39.7115 39.2264 39.9731C39.9033 40.1268 40.6189 40.2953 40.8155 40.3489C41.1097 40.4279 41.6891 41.3068 41.6891 41.6729C41.6891 41.7256 40.8831 42.6528 39.8989 43.7336C37.5125 46.3526 36.4932 48.271 36.5845 49.9752L36.6521 51.2325L38.4432 49.6188C39.4283 48.732 40.4582 47.8988 40.733 47.7697C41.2756 47.5125 41.3845 47.2798 41.5917 45.9215C41.6672 45.429 42.1141 44.0189 42.5847 42.7871C43.5997 40.1347 44.6761 36.5235 44.5575 36.1696C44.5119 36.0309 43.4697 35.4769 42.2423 34.9361L40.0104 33.9545L37.0999 33.9641C35.278 33.9703 33.8539 34.087 33.2937 34.2749ZM58.8136 35.0415C59.3623 34.7834 60.243 34.4313 60.7698 34.2592C62.7654 33.6069 67.4522 33.951 69.6586 34.9133C70.6964 35.3655 71.6788 35.7351 71.8413 35.7351C72.275 35.7351 72.2039 36.1337 71.7464 36.2654C71.5305 36.3278 70.5489 36.4472 69.5638 36.5315C67.1177 36.7396 64.3994 38.1224 64.8867 38.9108C64.9525 39.0171 64.9235 39.0838 64.8226 39.0583C64.7207 39.0338 64.2852 39.1734 63.8541 39.37C63.4231 39.5667 62.3493 39.9416 61.4678 40.2033C60.5792 40.4675 59.8057 40.8328 59.7328 41.0242C59.4378 41.7924 59.6292 42.4061 60.3755 43.0857C62.1824 44.7293 64.078 48.0929 64.078 49.6549V50.6031L63.2387 49.8164C62.7769 49.3836 62.0077 48.733 61.5292 48.3712C61.0507 48.0095 60.4651 47.5573 60.228 47.3659C59.991 47.1754 59.7021 46.5705 59.5871 46.0226C59.4712 45.4747 58.9295 43.616 58.3816 41.8916C56.7845 36.8642 56.6221 35.5112 57.6151 35.5112C57.7249 35.5112 58.264 35.2996 58.8136 35.0415ZM49.7475 40.1954C49.6228 40.6361 49.3173 42.0541 49.067 43.3474C48.8177 44.6407 48.5657 45.9199 48.5086 46.1912C48.4208 46.6012 48.5806 46.7628 49.4683 47.157L50.5333 47.6311L51.4841 47.171C52.6457 46.61 52.7318 45.7303 51.9758 42.1103C51.9518 41.9954 51.929 41.8858 51.9073 41.7812C51.589 40.2521 51.4946 39.7984 51.2231 39.6298C51.1086 39.5586 50.9626 39.5382 50.7549 39.5091C50.7208 39.5044 50.685 39.4994 50.6474 39.4939C50.0346 39.4043 49.952 39.4684 49.7475 40.1954ZM67.8596 46.5379C68.6507 46.7592 69.526 44.4264 69.5058 42.1523L69.4918 40.622L70.0871 40.7677C72.1951 41.284 71.8088 45.6266 69.1511 51.2949L67.5769 54.6532L67.4504 59.4673C67.3668 62.6656 67.3813 63.9582 66.8322 64.9335C66.3958 65.7087 65.6034 66.2834 64.1228 67.4553C63.6268 67.8478 63.2659 68.9338 63.0561 70.6617C62.8638 72.2492 62.4634 73.5451 62.0508 73.9191C61.8172 74.1307 61.6882 74.4038 61.7637 74.5267C61.8392 74.6496 61.7619 74.7023 61.5907 74.6443C61.4195 74.5864 60.574 75.0368 59.7127 75.6452C58.8505 76.2537 56.9865 77.5198 55.5703 78.4575C54.1541 79.3952 52.3884 80.6296 51.6465 81.1994L50.297 82.2364L48.9599 81.0388C48.2241 80.3803 47.5358 79.8421 47.4304 79.8412C47.325 79.8412 46.872 79.555 46.4233 79.2055C45.9747 78.8561 44.7508 78.0035 43.7042 77.3108C42.6576 76.6189 41.3318 75.6953 40.7585 75.2598C40.1852 74.8243 39.5996 74.4678 39.4582 74.4678C39.0043 74.4678 38.3906 72.6249 38.1236 70.4589C37.8752 68.4474 37.3194 67.0795 36.7513 67.0795C36.495 67.0795 35.8049 66.5413 34.7003 65.4824L33.8531 64.6694L33.8109 61.7887C33.7881 60.2039 33.7925 58.0809 33.8206 57.0704C33.8706 55.2889 33.8434 55.1827 32.9505 53.6076C32.4439 52.7129 32.0119 51.8884 31.99 51.7734C31.968 51.6593 31.5545 50.8498 31.0716 49.9753C29.867 47.7952 29.5465 42.1058 30.6045 41.7002C31.3262 41.4227 31.6142 41.7906 31.6142 42.9882C31.6142 44.4597 32.3482 45.9628 33.4053 46.6556C33.8364 46.9374 34.3667 47.3158 34.5836 47.4967C34.8004 47.6776 35.1279 47.8251 35.3105 47.8251C35.6732 47.8251 35.6942 48.4915 35.6451 58.1687C35.6178 63.5236 35.6547 63.6615 37.4941 65.0338C38.6151 65.8696 39.2583 66.368 39.9642 66.4837C40.9972 66.6531 42.1645 66.0031 45.1599 64.392C46.145 63.8617 47.4357 63.1742 48.0292 62.8634C49.5894 62.046 49.9731 61.4612 49.9731 59.8958C49.9731 57.9229 49.7193 57.577 47.1854 56.1019C43.3916 53.8929 42.5417 53.3468 42.4249 53.043C42.3635 52.8823 42.1879 52.7506 42.036 52.7506C41.8832 52.7506 41.5873 52.5619 41.3784 52.3309C40.9183 51.8226 41.4855 50.2879 42.1334 50.2879C42.3328 50.2879 42.5909 50.2009 42.7077 50.0938C43.0896 49.7461 46.8035 50.2756 48.7728 50.9578C50.089 51.4134 50.7905 51.5539 51.0512 51.4126C52.6325 50.5565 58.3544 49.7514 59.149 50.2729C59.6336 50.5908 59.5423 52.2431 59.0129 52.7419C58.6248 53.1071 55.5668 55.0299 53.4376 56.2468C49.6754 58.3988 50.1882 61.2558 54.7871 63.7563C60.7961 67.0242 61.0648 67.0646 63.4011 65.054C64.1162 64.4384 64.5879 64.0828 64.8951 63.6184C65.5421 62.6403 65.4593 61.1794 65.3836 55.7885C65.2792 48.3949 65.295 48.049 65.7392 48.049C65.8955 48.049 66.201 47.8532 66.4179 47.6135C66.6339 47.3747 67.0272 47.1455 67.2915 47.1042C67.5558 47.0639 67.7472 46.9076 67.7165 46.7566C67.6857 46.6055 67.7498 46.5072 67.8596 46.5379ZM56.4597 66.8521C56.2718 66.752 55.3323 66.5606 54.3727 66.4263C52.2883 66.1365 46.8676 66.1436 45.6077 66.4377C43.3591 66.9627 41.7515 67.5624 41.1905 68.0866L40.5794 68.6564L41.0597 69.1367C42.3486 70.4256 49.6219 74.0973 50.6122 73.9595C52.2848 73.7268 60.4976 69.3368 60.4958 68.6757C60.495 68.3658 58.5089 67.3052 57.6819 67.1743C57.1981 67.0971 56.6476 66.9522 56.4597 66.8521Z" fill="#7E839D"/>
</svg>
