<svg width="101" height="100" viewBox="0 0 101 100" fill="none" xmlns="http://www.w3.org/2000/svg">
<path d="M51.9003 7.63364C52.0371 7.8561 52.7556 8.03712 53.499 8.03712C56.6536 8.03712 62.9184 10.5105 68.4164 13.9275C69.1502 14.3835 69.9433 14.7151 70.1782 14.6626C70.6646 14.5562 72.2135 15.768 73.7749 17.4759C74.3566 18.1143 76.1031 19.9907 77.6535 21.646C80.1323 24.2935 83.251 29.0425 84.0441 31.3805C84.1588 31.719 84.3674 31.9967 84.5084 31.9967C84.6479 31.9967 84.9795 32.671 85.2448 33.4946C85.5101 34.3181 85.8321 35.0711 85.9592 35.1679C87.0577 36.0038 88.1617 55.9591 87.1641 56.9568C87.0687 57.0521 86.99 54.6713 86.99 51.6674C86.99 47.8372 86.8325 45.6858 86.4649 44.4726C86.1761 43.522 85.9385 42.1043 85.9371 41.3236C85.9343 40.5443 85.716 39.5922 85.4493 39.2095C85.184 38.8281 84.8469 37.9604 84.7018 37.282C84.5567 36.6035 83.9031 35.0338 83.2482 33.793C82.5932 32.5536 82.0571 31.3515 82.0571 31.1249C82.0571 30.4602 80.4944 29.178 79.686 29.178C79.2218 29.178 78.8349 28.8629 78.6511 28.3351C77.858 26.0593 68.8061 18.146 63.8235 15.3715C62.7084 14.7511 61.3211 13.9013 60.7408 13.4826C59.3259 12.4656 58.5314 12.2155 58.3241 12.7254C58.2205 12.9797 58.1417 12.9285 58.1251 12.5955C58.0975 12.0525 56.3496 11.1599 52.482 9.7118C50.4509 8.95045 41.7168 8.96151 41.2194 9.72424C41.1033 9.90248 40.3751 10.2507 39.5999 10.4966C38.8248 10.744 37.9515 11.1461 37.6613 11.3906C37.3712 11.6366 35.4685 12.7544 33.4332 13.8764C31.3979 14.997 29.2851 16.3622 28.738 16.908C28.1894 17.4552 27.5345 17.9028 27.2816 17.9028C26.6847 17.9028 24.6065 20.2076 23.6061 21.979C23.07 22.9297 22.2824 23.633 21.0983 24.2175C19.6654 24.9263 19.1804 25.4362 18.2422 27.2131C17.6204 28.3904 16.8203 29.732 16.4638 30.1949C16.1074 30.6564 15.8158 31.2879 15.8158 31.5988C15.8158 31.9083 16.1074 31.6181 16.4638 30.9535C16.8203 30.2875 17.297 29.6823 17.5209 29.6077C18.1675 29.3921 17.9976 30.5694 17.1962 31.8682C16.7927 32.5204 16.5246 33.2417 16.6006 33.4683C16.6753 33.6963 16.1612 34.4038 15.4552 35.0407C14.1425 36.2263 13.1545 38.5656 13.4972 39.6765C13.7805 40.5968 14.1024 47.8897 14.0651 52.5448C14.0306 56.8089 14.6814 60.4346 15.6942 61.6216C15.954 61.9269 16.1682 62.5294 16.1682 62.9577C16.1682 64.1253 18.2214 68.2885 18.7976 68.2885C19.4885 68.2885 20.3535 69.6095 20.1573 70.3625C20.0675 70.7025 20.2443 71.1874 20.5483 71.4389C20.8523 71.6918 21.101 72.0994 21.101 72.344C21.101 72.9271 22.3902 74.5147 22.6513 74.2536C22.7633 74.143 22.5367 73.1523 22.1511 72.051C21.7643 70.9512 21.3787 69.1383 21.2958 68.0246C21.1162 65.619 19.5479 57.468 18.8543 55.3346C18.5862 54.5083 18.4936 53.7525 18.6498 53.6571C18.8059 53.5604 18.9275 50.5786 18.9178 47.0316C18.9054 41.7533 19.0063 40.3812 19.4733 39.4776C19.787 38.871 20.044 37.8955 20.044 37.3096C20.044 36.2691 21.2309 33.4393 22.4358 31.6071C22.9581 30.8098 24.6259 28.3765 26.3862 25.841C27.5538 24.1594 30.1626 21.6667 31.4421 21.0132C32.1882 20.6318 33.4567 19.7185 34.2608 18.9848C36.9193 16.5598 41.5012 14.3877 45.2375 13.7838C45.8178 13.6899 46.984 13.4854 47.8283 13.3292C50.8156 12.7793 54.2189 13.1842 56.952 14.4139C57.7755 14.7842 58.4927 15.0468 58.5452 14.997C58.5991 14.9487 59.0316 15.2706 59.5069 15.7128C59.9808 16.1549 61.2465 16.9287 62.3174 17.4303C63.3869 17.9332 65.5175 19.3634 67.0499 20.6097C68.5836 21.856 70.2846 22.9656 70.8304 23.0748C71.9192 23.2917 72.3282 23.6827 73.254 25.3947C75.4772 29.4985 76.7609 32.7802 76.7678 34.3747C76.7705 34.8114 76.917 35.1679 77.0939 35.1679C77.2707 35.1679 77.5264 35.8422 77.6631 36.6657C77.7986 37.4892 78.2089 38.9553 78.5737 39.9239C78.9399 40.8939 79.2383 42.3406 79.2383 43.1392C79.2383 43.9379 79.5423 45.2851 79.9154 46.1335C81.0816 48.792 81.72 59.8515 80.96 64.2358C80.0729 69.3552 75.9705 80.2545 74.2502 82.0577C73.9877 82.3341 73.1407 83.4008 72.3655 84.4316C70.1975 87.3153 60.6883 92.6005 57.6678 92.6005C57.3099 92.6005 56.9299 92.8313 56.8208 93.1145C56.6936 93.4461 56.2943 93.5733 55.6877 93.4738C55.1723 93.3895 53.8776 93.2499 52.8123 93.1643C51.747 93.08 50.0018 92.7566 48.9365 92.4485C45.576 91.4744 44.7083 91.3818 44.7083 91.9967C44.7083 92.2979 44.6157 92.7843 44.5024 93.0786C43.8986 94.6524 54.5491 96.7554 56.1948 95.3903C56.4256 95.1982 57.4895 94.8997 58.559 94.7256C60.4271 94.4217 65.132 92.747 65.4968 92.2578C65.5935 92.1266 65.9445 91.9207 66.2761 91.7977C67.901 91.1994 72.0546 88.0725 73.5289 86.3384C74.4409 85.2661 75.6416 83.9783 76.1971 83.474C80.1586 79.8842 84.4918 71.5633 84.518 67.4954C84.5208 66.8722 84.7115 66.5268 85.0528 66.5268C85.6746 66.5268 85.6967 66.9952 85.2131 70.0503C84.8856 72.116 84.5719 73.0017 82.9041 76.568C82.4979 77.4371 78.5765 82.6574 76.66 84.882C74.9052 86.9201 76.1391 85.8962 78.8224 83.0871C80.5828 81.2466 82.0295 79.4752 82.0392 79.1519C82.0488 78.8299 82.1981 78.5121 82.3708 78.4472C82.5435 78.3836 83.0838 77.538 83.5715 76.568C84.0593 75.5994 84.9091 73.9275 85.4604 72.8525C86.0103 71.7775 86.6805 70.3501 86.9485 69.6813C87.7292 67.7331 88.4256 66.1233 89.3017 64.2358C89.7507 63.2672 90.197 61.8233 90.291 61.0274C90.385 60.2315 90.7111 58.9824 91.0164 58.2542C91.3218 57.5247 91.5705 56.3225 91.5705 55.5819C91.5705 54.8413 91.7322 54.1366 91.9284 54.015C92.4065 53.7193 91.9698 47.2555 91.3923 46.0906C90.7456 44.7849 90.1611 42.8007 90.1611 41.9081C90.1611 41.4756 89.9442 40.6949 89.6789 40.1712C89.4136 39.6475 88.988 38.3473 88.731 37.282C88.4754 36.2166 87.6698 34.1343 86.9402 32.6545C86.2107 31.176 85.7132 29.8675 85.8321 29.7486C85.9523 29.6284 85.8652 29.5303 85.64 29.5303C85.4134 29.5303 85.2282 29.3659 85.2282 29.1655C85.2282 28.581 80.3341 21.4526 78.7492 19.7295C76.0879 16.8361 67.7366 11.2082 66.1034 11.2082C65.9058 11.2082 64.7769 10.7398 63.5941 10.1664C59.6216 8.24023 51.1404 6.40388 51.9003 7.63364ZM81.8816 32.3491C81.8816 32.6641 81.4892 32.9225 80.9117 32.9888C79.9748 33.0966 79.5796 32.4776 80.1931 31.8641C80.6229 31.4344 81.8816 31.795 81.8816 32.3491ZM82.9 34.3153C83.5328 35.9638 82.7715 37.0526 81.3607 36.5192C80.8785 36.3354 80.645 36.0784 80.8398 35.943C81.0332 35.8076 81.3828 35.2604 81.6163 34.7271C82.0944 33.6396 82.5808 33.4835 82.9 34.3153Z" fill="#7E839D"/>
<path d="M46.1178 15.5054C45.4393 15.6713 44.6559 15.8564 44.3754 15.9172C44.0949 15.9766 43.8047 16.2101 43.7287 16.4367C43.6541 16.662 43.2976 16.8457 42.9384 16.8457C42.5777 16.8457 42.1895 16.9977 42.0748 17.1829C41.9601 17.368 41.6547 17.4385 41.3949 17.339C41.1352 17.2395 40.7055 17.3653 40.4374 17.6181C39.8792 18.1487 37.4252 19.3288 36.5201 19.5042C35.7339 19.6562 33.4333 21.4042 33.4333 21.8505C33.4333 22.037 33.2357 22.1227 32.9925 22.0411C32.7507 21.9596 32.2754 22.3465 31.9355 22.902C31.5969 23.4561 30.9627 24.0599 30.5261 24.2423C29.3419 24.7369 28.6317 25.3919 28.3636 26.2348C28.2324 26.6493 27.7874 27.0763 27.3743 27.184C26.7414 27.3498 26.6945 27.4659 27.0744 27.9247C27.5401 28.4856 27.0358 29.6297 25.7618 30.9079C25.4896 31.1814 24.8913 31.9994 24.4311 32.7276C23.9724 33.4558 23.457 34.1384 23.2857 34.2434C23.1157 34.3484 22.9471 35.2466 22.9112 36.2401C22.8767 37.2322 22.5464 38.6346 22.1789 39.3559C21.3333 41.014 20.6368 44.7793 20.9298 46.1127C21.0528 46.6723 21.0265 47.3328 20.8717 47.5801C20.5125 48.1535 20.6755 53.5286 21.1122 55.4768C21.5115 57.2621 21.9094 60.0919 21.8956 61.0647C21.8873 61.6699 22.3834 63.3639 24.2736 69.1949C24.4671 69.7891 24.6246 70.795 24.6246 71.4306C24.6246 73.3788 25.6098 74.6307 27.1422 74.6307C28.6331 74.6307 28.6593 75.0895 26.881 70.0502C25.5338 66.2324 24.55 62.6675 24.4353 61.189C24.3814 60.4816 24.0304 59.2117 23.6574 58.3675C22.7703 56.3625 22.7703 41.0126 23.6574 39.6488C23.9365 39.2191 24.3662 38.2325 24.6108 37.4574C25.9511 33.2264 34.5815 22.5413 37.1502 21.9347C37.7222 21.7993 38.9824 21.1831 39.9524 20.564C40.921 19.9464 42.3801 19.2486 43.1954 19.0137C44.0106 18.7802 44.9032 18.3629 45.1796 18.0866C45.4559 17.8102 45.7447 17.6472 45.8221 17.7245C45.8981 17.8005 46.5917 17.7218 47.3614 17.5477C49.1093 17.1525 50.2575 17.4206 50.5339 18.2897C50.7024 18.8217 51.0866 18.9612 52.3951 18.964C55.6339 18.9709 59.1408 20.6428 63.3151 24.1649L65.1846 25.7429L66.5843 25.1128C67.354 24.766 67.9357 24.3887 67.8763 24.2754C65.1128 18.9322 52.6521 13.9095 46.1178 15.5054Z" fill="#7E839D"/>
<path d="M67.9632 15.6119C68.205 15.9035 68.5629 16.1411 68.7605 16.1411C69.6835 16.1411 75.7148 21.6834 75.7148 22.5318C75.7148 22.9131 80.0356 27.0888 80.229 26.8953C80.3479 26.7765 80.0356 26.3302 79.5354 25.9032C79.0366 25.4763 77.5056 23.7588 76.1335 22.0868C73.3672 18.7167 71.2697 16.774 69.298 15.7584C67.7241 14.9459 67.3787 14.9086 67.9632 15.6119Z" fill="#7E839D"/>
<path d="M45.9921 19.7244C45.9216 19.9828 45.684 20.7593 45.4629 21.4516C45.2418 22.1438 45.0608 23.205 45.0608 23.8088C45.0608 24.4141 44.9019 25.0068 44.7085 25.1257C44.515 25.2459 44.3534 25.612 44.3506 25.9395C44.3464 26.4839 41.8634 29.1977 38.4712 32.3674C37.6145 33.1675 36.838 34.4028 36.3115 35.8025C35.4535 38.0851 35.4217 38.1059 33.0133 37.9953C31.5597 37.929 28.5005 39.1311 28.5005 39.7695C28.5005 40.0403 28.8072 39.9809 29.389 39.5995C30.2304 39.0482 34.8842 38.6157 35.3167 39.0482C36.2604 39.992 35.6497 41.3115 33.993 41.9112C31.036 42.9835 28.5986 46.2513 29.3848 48.0904C29.6142 48.6279 29.7261 48.5312 30.066 47.5004C30.9116 44.9373 32.7756 42.8619 34.9091 42.1116C35.4521 41.9195 36.3862 43.818 36.7468 45.8423C36.7883 46.0758 37.2498 47.0942 37.7707 48.1056C39.0087 50.5057 39.0212 52.6074 37.8121 55.1622C37.3133 56.2165 36.9928 57.1672 37.0991 57.2736C37.2055 57.38 37.4059 57.1672 37.5455 56.7996C37.8522 55.9913 40.5314 53.0716 40.758 53.2983C40.8465 53.3867 40.7967 53.7446 40.6461 54.0914C40.4969 54.4396 40.3338 54.9177 40.2841 55.1539C40.2343 55.3916 39.3611 56.5426 38.3427 57.7116C36.2259 60.1462 36.2659 60.7445 38.4477 59.2743C39.274 58.7175 40.3283 58.0584 40.7898 57.8111C42.1674 57.0704 40.9542 58.3375 39.263 59.4056C37.3948 60.5842 34.8427 63.0009 34.8427 63.5896C34.8427 64.239 34.8842 64.2238 37.0093 62.7785C39.8419 60.8523 42.9205 59.53 44.7085 59.4692C48.3383 59.3448 51.0507 59.5009 51.0507 59.8326C51.0507 60.026 50.2977 60.1877 49.3774 60.1904C47.4278 60.1987 41.7653 61.0789 41.0316 61.4893C40.7553 61.6441 43.136 61.7145 46.3224 61.6454C49.5087 61.5777 52.3869 61.6261 52.7185 61.7532C53.8778 62.1981 52.3966 62.6403 49.7298 62.6458C48.2651 62.6486 47.1749 62.802 47.1749 63.0037C47.1749 63.1971 47.4222 63.356 47.7262 63.356C48.0288 63.356 49.1784 63.7706 50.2811 64.2777C52.4131 65.2601 54.7331 66.15 55.6768 66.3489C55.9919 66.4153 56.9895 66.7206 57.8918 67.0274C58.7941 67.3341 59.9133 67.5842 60.3789 67.5842C61.2343 67.5842 61.8616 68.1051 61.3628 68.3995C61.0422 68.5901 55.9698 67.7735 54.2453 67.2554C53.5793 67.055 52.9727 66.9541 52.8981 67.0287C52.7254 67.2015 56.423 68.2889 57.1829 68.2889C57.8683 68.2889 57.9277 68.8485 57.2686 69.1014C57.0061 69.2022 55.5124 69.1304 53.951 68.9411C50.5975 68.5362 47.6461 68.6578 48.7612 69.1553C49.148 69.3294 50.0448 69.8309 50.7523 70.2717C51.4597 70.7125 53.1634 71.6466 54.5397 72.3471C56.7062 73.4511 58.1723 74.8177 56.4244 74.102C55.6727 73.7952 53.6664 73.2107 52.7765 73.038C51.7582 72.8432 51.6159 73.5258 52.6218 73.7786C53.1137 73.9016 53.5172 74.1241 53.5172 74.2733C53.5172 74.4225 54.349 74.8951 55.3673 75.3234C59.4836 77.0589 61.3254 79.1398 57.9084 78.1961C57.1774 77.9944 56.4479 77.9087 56.2876 78.0082C56.1287 78.1063 55.6658 78.0096 55.2582 77.7912C54.8519 77.5743 54.2868 77.4845 54.0035 77.5936C53.151 77.9211 53.9869 79.0652 57.9705 83.0267C59.9824 85.0275 61.5424 86.8058 61.436 86.9771C60.9551 87.7551 53.5379 80.9416 52.9907 79.22C52.8 78.6175 52.1078 78.1809 52.1078 78.6617C52.1078 79.3554 54.0864 84.1224 54.6129 84.6959C54.979 85.0952 55.2955 85.5719 55.3176 85.7529C55.3383 85.9339 56.2143 86.8625 57.2631 87.8173L59.1713 89.5527L60.408 88.9627C61.0892 88.638 61.8533 88.3727 62.1089 88.3727C62.3645 88.3727 63.3193 87.9762 64.2299 87.4912C65.1405 87.0075 66.0759 86.5999 66.3081 86.5875C67.6594 86.5129 70.4989 83.6858 73.0096 79.9164C75.6045 76.0184 76.5455 68.2392 74.8349 64.8318C74.3499 63.8673 73.9533 62.8766 73.9533 62.6292C73.9533 62.3833 73.8538 62.281 73.7308 62.404C73.6079 62.527 73.2127 62.4676 72.8493 62.2741C71.9981 61.8182 71.9636 60.8385 72.8078 61.1107C73.1477 61.2199 72.7346 60.8979 71.8917 60.3949C71.0475 59.892 69.9683 59.4802 69.4916 59.4802C69.0052 59.4802 68.722 59.3268 68.8436 59.1279C69.1227 58.6788 70.8209 58.6733 71.9926 59.1196C72.49 59.3075 72.8963 59.3268 72.8963 59.1597C72.8963 58.5061 71.1304 57.753 69.4142 57.6743C68.3821 57.6273 67.611 57.4256 67.611 57.2031C67.611 56.9889 67.0957 56.5191 66.4656 56.1599C64.9512 55.2949 63.0305 53.4682 63.0305 52.892C63.0305 52.2067 63.5086 52.3324 64.65 53.319C65.7319 54.2544 68.9859 55.6251 70.0029 55.574C70.3345 55.5574 69.7086 55.1222 68.6128 54.6054C66.3205 53.5249 65.2856 52.6723 64.5546 51.256C63.7781 49.7541 64.2907 49.6822 65.7678 51.0847C67.0735 52.3241 68.8284 53.301 68.0449 52.3531C66.9644 51.0446 67.0003 49.5053 68.19 46.091C69.5731 42.1268 69.6284 41.3005 68.5935 40.1978L67.8128 39.3674L68.6736 36.8277C69.1462 35.4308 69.8163 33.6967 70.1618 32.9754C70.8416 31.555 72.2482 24.975 71.9691 24.5218C71.3584 23.5339 67.5337 25.4048 64.4855 28.1835C63.4451 29.1327 62.1324 30.147 61.5686 30.4385C60.3485 31.07 59.5167 30.7563 60.4549 30.0198C60.8059 29.7449 60.9344 29.5417 60.741 29.568C59.9188 29.6758 59.4684 29.4754 58.3699 28.511C57.4966 27.7441 56.7311 27.4429 55.2747 27.295C54.2108 27.1872 52.3496 26.9662 51.1378 26.8045C49.9246 26.6428 48.6948 26.6428 48.4033 26.8059C46.5061 27.8684 45.2252 28.2139 45.8788 27.4885C46.2325 27.0974 46.9538 26.5972 47.4816 26.3789C48.7708 25.8442 48.8551 24.3256 47.7469 21.6022C46.9055 19.5337 46.2353 18.8166 45.9921 19.7244ZM47.4913 28.6699C50.2203 29.1949 49.5004 32.0372 46.2477 33.5806C44.7706 34.2812 45.0843 35.2415 46.9967 35.8716C48.6534 36.4187 48.5815 37.0378 46.8778 36.8747C45.047 36.7006 45.275 37.5559 47.6723 39.8552L49.4548 41.5644L47.5245 40.5681C46.0971 39.8331 45.38 39.1822 44.772 38.0755C43.8518 36.3952 43.2438 36.2101 42.4382 37.3611C41.6769 38.4485 41.7529 40.7519 42.5958 42.1351C43.4649 43.5624 43.4649 43.6025 42.5861 43.3717C41.547 43.1009 40.4803 41.5768 40.4803 40.3623C40.4803 39.4669 40.4015 39.3757 39.9525 39.7488C38.4685 40.9799 40.3242 46.091 42.2545 46.091C42.441 46.091 42.5944 46.2541 42.5944 46.453C42.5944 46.9463 40.5287 45.8672 39.3348 44.7521C38.8028 44.2533 38.3662 43.5666 38.3662 43.2266C38.3662 42.8867 38.2073 42.5109 38.0139 42.3907C37.8204 42.2719 37.6615 41.7647 37.6615 41.2645C37.6615 40.7644 37.4073 40.1688 37.0964 39.9422C36.6142 39.5899 36.7302 39.4683 37.8895 39.1063C40.7511 38.2123 44.1046 33.5364 41.681 33.821C40.9487 33.9067 40.6364 34.1858 40.4375 34.9375C40.0837 36.2709 37.3092 37.9207 37.3092 36.7987C37.3092 36.2336 39.2685 33.3582 39.9635 32.9022C40.4416 32.5899 40.8326 32.1381 40.8326 31.9004C40.834 30.614 44.153 28.0301 45.4781 28.2843C46.0239 28.388 46.9289 28.5621 47.4913 28.6699ZM59.3399 31.4527C61.2909 33.2006 60.9109 33.6483 58.8687 32.0082C58.1529 31.4334 57.2507 30.9332 56.8638 30.8959C54.5714 30.6775 53.2588 31.327 55.0716 31.7816C56.0817 32.0358 58.7347 35.2442 59.0096 36.5445C59.116 37.0474 59.409 38.1321 59.6591 38.9556C60.1993 40.7326 59.9893 40.8196 58.6172 39.3867C58.0562 38.8009 57.3833 38.4029 57.1235 38.5024C56.8638 38.6019 56.7228 38.566 56.8099 38.4237C56.8969 38.28 55.4392 38.1197 53.5697 38.0672C47.4416 37.8931 47.2951 34.5188 53.2698 31.1321C56.2295 29.4547 57.165 29.5044 59.3399 31.4527ZM68.9527 31.7954C68.4719 32.1975 67.4825 33.0017 66.753 33.582C66.0234 34.1637 64.9581 35.3534 64.3847 36.2253L63.3428 37.8102L63.5611 36.5776C64.0392 33.8749 64.491 33.3471 68.2853 31.0589C69.7818 30.158 70.2695 30.6955 68.9527 31.7954Z" fill="#7E839D"/>
<path d="M44.2772 30.4315C43.4025 30.9069 42.369 32.2416 42.655 32.5277C43.4412 33.3139 44.6779 33.0099 45.3923 31.8548C46.5087 30.0488 46.0528 29.4685 44.2772 30.4315Z" fill="#7E839D"/>
<path d="M53.4065 34.3941C52.2734 35.5769 52.2016 36.4143 53.1868 36.9421C54.4787 37.633 56.0263 35.5092 55.2663 34.0874C54.7813 33.1823 54.5271 33.2252 53.4065 34.3941Z" fill="#7E839D"/>
<path d="M49.6411 22.3275C49.6411 23.0875 50.4895 25.6548 50.7396 25.6548C51.1984 25.6548 51.1182 24.8478 50.5171 23.4081C50.0432 22.2709 49.6411 21.7762 49.6411 22.3275Z" fill="#7E839D"/>
<path d="M13.4533 4.26819C13.3939 4.90342 13.3887 5.91823 13.4352 6.52763C13.523 7.61733 10.0861 11.0181 8.89569 11.0181C7.40575 11.0181 8.5161 12.224 10.853 13.1433C12.9317 13.9593 13.5024 14.5687 13.8639 16.371C15.0569 22.2766 16.1905 22.5942 16.1905 17.0218C16.1905 13.3705 16.3221 13.0503 18.4964 11.3925C21.3136 9.24154 21.373 8.66313 18.8217 8.15443C17.3964 7.8678 16.5339 7.10863 15.736 5.43794C14.5353 2.91769 13.616 2.44773 13.4533 4.26819Z" fill="#7E839D"/>
<path d="M76.0728 42.7057C76.07 42.8784 76.3823 44.0777 76.7678 45.3711C77.1519 46.6644 77.648 49.8521 77.8677 52.4553C78.2407 56.8838 78.3333 58.6995 78.477 64.384C78.5737 68.264 78.8985 66.5119 79.2024 60.4598C79.5424 53.7017 79.3876 52.4139 77.4338 45.7386C76.8092 43.601 76.0852 41.9885 76.0728 42.7057Z" fill="#7E839D"/>
<path d="M36.2506 52.1484C35.7725 52.7896 35.4188 53.4335 35.4644 53.5786C35.51 53.7236 35.3925 53.8425 35.2018 53.8425C34.8854 53.8425 33.4663 56.2536 33.541 56.6613C33.6142 57.0551 32.5944 60.392 32.2753 60.8051C32.086 61.0497 31.7972 61.97 31.6327 62.8515C31.4669 63.7331 31.0856 64.9739 30.7843 65.6109C30.1253 66.9982 30.1681 73.6029 30.8369 73.8254C31.2155 73.9498 32.0611 70.4415 32.7243 65.9978C32.868 65.0292 33.3143 63.3296 33.7151 62.2228C34.1158 61.1146 34.5179 59.7398 34.609 59.1664C34.7652 58.1674 36.2326 54.1409 37.0161 52.5561C37.6752 51.2213 37.1501 50.9422 36.2506 52.1484Z" fill="#7E839D"/>
<path d="M8.70667 63.9832C3.58865 67.3574 6.3867 76.5958 11.7521 74.0368C12.9804 73.451 13.3369 72.7684 12.6391 72.3373C12.4416 72.2157 12.3683 71.9753 12.4733 71.8039C12.5797 71.6312 12.4319 70.9293 12.1459 70.2425C11.4135 68.4905 12.273 68.5568 13.0993 70.3144C14.9577 74.2662 18.9427 78.8592 20.5124 78.8592C21.3041 78.8592 22.1581 79.2447 22.1581 79.6012C22.1581 79.7753 21.7615 79.9162 21.2779 79.9162C20.7183 79.9162 20.3963 80.1152 20.3963 80.4606C20.3963 80.7826 20.6478 80.9622 21.0126 80.9C21.3525 80.8434 21.5915 80.9898 21.5459 81.2247C21.499 81.4596 21.6813 81.5688 21.9494 81.4651C22.2175 81.3629 22.6513 81.5826 22.9139 81.9557C23.1764 82.3274 25.2407 83.8362 27.4999 85.3092C32.1675 88.3504 32.3443 88.5301 31.2403 89.1145C25.9441 91.9223 27.8965 100 33.8739 100C35.9825 100 39.3858 97.3374 40.8822 94.5158C41.3396 93.6564 41.8398 92.9531 41.9959 92.9531C42.152 92.9531 42.6661 92.0812 43.1372 91.0144C43.6084 89.9491 44.1307 89.0772 44.2951 89.0772C45.3536 89.0772 45.6797 82.174 44.711 80.2755C44.3642 79.5929 44.0782 78.902 44.0754 78.7376C44.0506 76.5475 35.8056 73.3404 33.3309 74.5577C28.8319 76.7713 20.073 75.7571 18.6083 72.854C17.5858 70.8229 16.1681 67.613 16.1681 67.3243C16.1681 65.0775 10.7351 62.6443 8.70667 63.9832ZM30.1266 77.3669C30.3422 77.5092 30.6324 77.9859 30.7691 78.4267C30.9073 78.8674 31.8511 80.1359 32.8666 81.2454C33.8809 82.355 35.275 84.0117 35.9632 84.9264C36.6513 85.8398 37.3408 86.474 37.4941 86.3358C37.6489 86.1963 37.6682 86.2681 37.537 86.4961C37.4071 86.7241 37.4803 87.3072 37.7014 87.7922C38.4379 89.4075 36.5601 92.5841 34.8522 92.609C34.5565 92.6131 33.9182 92.9268 33.4332 93.3054C31.489 94.8267 31.489 93.4823 33.4332 91.4594C34.5731 90.2738 34.8426 89.7363 34.8426 88.6544C34.8426 87.2174 34.7154 87.0184 31.8248 83.9537C28.6426 80.5781 27.341 75.5319 30.1266 77.3669ZM36.0765 77.8215C37.432 78.0052 38.5954 78.3147 38.659 78.5082C38.7239 78.7016 38.9712 78.8592 39.2075 78.8592C39.7326 78.8592 41.6436 80.8351 42.2419 81.9985C42.8277 83.1371 42.7103 87.4937 42.0443 89.2527C41.7513 90.0279 41.4197 90.9398 41.3078 91.2797C41.1945 91.6183 40.9623 91.896 40.791 91.896C40.6197 91.896 40.476 92.0936 40.4704 92.3368C40.44 93.6826 36.2243 97.5115 34.7541 97.5267C33.7938 97.5377 34.0301 96.5 35.0775 96.1021C36.4067 95.5963 36.7342 95.1127 38.6548 90.8265C40.038 87.7438 40.0407 87.7618 37.4168 84.3392C36.0972 82.6189 34.7265 81.1708 34.37 81.1197C34.0135 81.0686 33.6169 80.9097 33.4884 80.7674C33.3613 80.625 33.534 80.6085 33.8739 80.73C34.2125 80.8516 34.4902 80.7978 34.4902 80.6098C34.4902 80.4219 34.3313 80.2685 34.1379 80.2685C33.9444 80.2685 33.7855 80.0585 33.7855 79.8015C33.7855 79.5445 33.389 78.9614 32.9053 78.5068C31.811 77.4788 31.7723 76.9413 32.8169 77.2508C33.2522 77.3793 34.7196 77.6363 36.0765 77.8215Z" fill="#7E839D"/>
</svg>
