<svg width="101" height="100" viewBox="0 0 101 100" fill="none" xmlns="http://www.w3.org/2000/svg">
<path fill-rule="evenodd" clip-rule="evenodd" d="M48.5595 13.6129C48.6302 13.6524 48.8759 13.6055 49.1069 13.5086C50.0151 13.1256 57.3009 13.9285 59.8866 14.6962C60.5112 14.8819 61.1711 15.0701 61.352 15.1153C72.0347 17.7502 82.8842 28.9417 86.0846 40.6246C88.3061 48.7357 87.056 59.7528 83.1916 66.1322C82.9467 66.5358 82.6302 67.1012 82.4872 67.3897C79.0126 74.3888 70.4719 80.3648 64.1959 83.8638L61.5107 78.0229L61.2886 77.5843L60.4241 75.8772L59.5208 73.991C59.0236 72.9538 58.4236 71.7275 58.1861 71.2665C57.4612 69.8578 56.0517 67.019 54.4803 63.803C53.6568 62.119 52.7478 60.3939 52.4593 59.969C52.1716 59.5449 51.9349 59.1307 51.9349 59.0493C51.9341 58.968 51.3079 57.8642 50.5427 56.596C49.7775 55.3287 48.8866 53.7869 48.562 53.1697C48.2373 52.5532 47.7459 51.7519 47.4705 51.3887C47.1952 51.0254 46.5624 49.9734 46.0643 49.0512C45.5663 48.1291 44.243 45.8657 43.1228 44.0214C42.0034 42.1771 40.7452 40.0279 40.3268 39.2447C39.9085 38.4614 39.0357 36.9525 38.3872 35.8914C37.7379 34.8304 36.8758 33.3494 36.4714 32.5998C36.0671 31.8503 35.5139 30.9092 35.2435 30.5082C34.9723 30.1063 34.7504 29.697 34.7504 29.5967C34.7504 29.4973 34.1702 28.5529 33.4617 27.4976C31.2229 24.1641 30.9197 23.5732 30.8958 22.4892C30.8695 21.3155 30.8704 21.3163 30.4594 22.1103C29.8931 23.2058 30.609 26.0018 31.9059 27.759C33.7461 30.2534 33.7683 30.8164 32.1023 32.8398C23.9494 42.7434 24.6718 57.7812 33.7305 66.7034C39.1632 72.0542 46.8961 74.8294 53.6898 74.1159L58.3595 85.9033C55.4211 86.8235 48.8439 86.6757 46.0676 86.2796C44.4 86.0413 43.7655 85.8941 40.8282 85.0641C39.0973 84.575 36.026 83.3554 34.96 82.7332C34.4414 82.4308 33.5456 81.9385 32.9694 81.6393C27.564 78.8318 19.7488 70.5005 17.796 65.4649C17.6925 65.1978 17.3201 64.3611 16.9676 63.605C16.6158 62.8497 16.2369 61.8593 16.126 61.4048C16.015 60.9503 15.6822 59.6559 15.3871 58.5274C15.0921 57.3998 14.7995 55.9854 14.7378 55.3838C14.6762 54.783 14.5792 53.9611 14.5225 53.5576C14.1033 50.5684 14.3869 44.4364 15.0592 41.9256C16.0758 38.1327 17.2182 34.9635 18.2242 33.1472C18.345 32.9294 18.7798 32.1273 19.1899 31.3654C19.6008 30.6035 20.1408 29.7446 20.3915 29.4562C20.6413 29.1677 21.2807 28.3195 21.8117 27.57C23.4924 25.198 29.0039 19.98 30.4191 19.4203C30.5317 19.3759 30.9369 19.1277 31.3199 18.8672C33.8907 17.1232 40.5832 14.5367 43.5527 14.1406C46.5952 13.7346 48.4329 13.5406 48.5595 13.6129ZM49.2211 23.0694C48.4403 22.6757 47.0415 22.1604 46.1136 21.9229C43.4023 21.2309 40.3696 21.6673 38.2524 23.0546L37.7281 23.3982L38.2713 25.0542L38.8146 26.7103L39.4951 26.0454C41.1692 24.4082 44.1403 24.4025 48.2645 26.029C51.0605 27.1311 51.1443 27.1936 52.3385 29.0321C54.4351 32.2579 56.2859 32.4815 60.046 29.96C61.6758 28.8669 61.4941 28.9055 61.6914 29.6131C62.4048 32.1675 59.4197 34.4482 55.6482 34.2296L53.9485 34.131L53.0502 33.1398C52.5563 32.5941 52.0319 31.8963 51.8848 31.5889C51.5166 30.8221 49.6526 30.0611 48.3204 30.135L47.3251 30.1893V29.4438C47.3251 28.3762 46.9774 28.045 45.4496 27.6579C43.6612 27.2042 39.9849 27.8149 39.0841 28.7148C38.8318 28.9672 38.7505 28.8891 38.5097 28.1601C38.356 27.6933 37.9565 26.8804 37.6237 26.3544C37.29 25.8292 36.801 24.9096 36.5372 24.3129C36.0194 23.1434 35.3602 22.5401 34.5992 22.5401C33.9113 22.5401 34.0042 23.0373 34.8515 23.8847C35.6898 24.723 35.4375 25.535 34.4948 25.0304C34.0831 24.8101 34.088 24.8488 34.5836 25.7117C35.5115 27.3283 36.6128 29.0822 36.9202 29.4315C37.0837 29.6181 37.5029 30.3364 37.8505 31.0276C38.4102 32.1404 39.2954 33.6584 40.1961 35.049L40.4928 35.5068L41.2818 34.7942C43.8288 32.493 48.6162 32.2596 49.8647 34.3759C51.0145 36.3246 55.5783 37.3535 57.7982 36.1659C58.3842 35.852 58.551 36.8341 58.0743 37.7916C56.8539 40.2441 52.5777 39.9959 49.526 37.2968C47.6448 35.6325 46.2081 35.5388 43.4524 36.9007C41.6492 37.7916 41.6829 37.7184 42.4694 39.0408C42.7965 39.5907 43.4721 40.7471 43.971 41.6117C46.3183 45.6783 46.1416 45.532 47.1286 44.2104C48.8792 41.8673 52.6229 41.4703 56.032 43.2669C58.9324 44.7948 61.9355 43.668 64.2482 40.1841C65.0734 38.9406 65.1794 38.9628 65.6191 40.4668C66.2183 42.5141 64.0584 45.5673 61.2566 46.6333C59.7255 47.2168 57.5664 47.29 57.001 46.7779C55.1263 45.0816 50.0167 45.2698 48.4839 47.0919C47.833 47.8653 47.8322 48.0009 48.4675 49.0512C48.7469 49.5123 49.3247 50.5027 49.7521 51.2522C50.1794 52.0018 50.7868 53.039 51.1016 53.5576C51.4163 54.0762 52.0985 55.3024 52.6163 56.2821C53.9181 58.7436 55.1501 60.7358 56.4388 62.4642C57.0396 63.2713 57.9042 64.5444 58.3595 65.2939C58.8148 66.0435 59.7016 67.3281 60.3295 68.1483C60.9575 68.9693 61.5656 69.7945 61.6815 69.9819C61.979 70.4651 65.6676 68.6685 67.1733 67.3067C69.7572 64.9693 73.6184 59.1299 74.045 56.9166C74.0959 56.6511 74.2743 55.9517 74.4403 55.3624C74.6063 54.7731 74.8093 53.8666 74.8907 53.348C74.972 52.8294 75.0789 52.2163 75.129 51.9853C76.4818 45.6824 71.9278 35.0087 65.6446 29.7603C65.0997 29.3049 64.3411 28.6655 63.9598 28.3401C62.1385 26.7851 58.0234 25.0583 55.1846 24.6573C52.4774 24.2759 50.6512 23.7894 49.2211 23.0694Z" fill="#7E839D"/>
</svg>
