<svg width="101" height="100" viewBox="0 0 101 100" fill="none" xmlns="http://www.w3.org/2000/svg">
<path d="M49.4517 5.80974C48.9903 6.87962 48.4706 8.0582 48.2956 8.42941C48.1206 8.80195 47.654 9.99114 47.2602 11.0729C46.6172 12.8349 46.4847 12.9913 45.9835 12.5763C45.676 12.3205 44.4655 11.2996 43.2936 10.3067C42.1177 9.30971 41.0438 8.63623 40.8966 8.80327C40.5785 9.16652 38.741 14.9905 37.9747 18.0649C37.0268 21.8711 36.7961 21.6815 34.8234 15.4797C32.7486 8.96369 31.9439 8.65081 30.1714 13.6701C29.5469 15.436 29.0352 16.9195 29.0326 16.9659C29.0047 17.5267 27.7028 16.5841 25.6479 14.5146C22.4887 11.3341 22.6929 11.3156 22.0751 14.8526C21.9783 15.4108 21.7529 16.3242 21.5753 16.881C21.3989 17.4392 21.094 18.5475 20.8991 19.3443L20.5451 20.792L19.462 20.0363C17.887 18.9373 15.0181 16.5854 14.8855 16.2858C14.8219 16.1452 14.4573 15.8602 14.0742 15.656C13.2456 15.2119 13.2933 15.7608 14.4852 20.4314C15.1997 23.226 15.4941 24.6313 16.1848 28.5449C16.5613 30.6833 17.0425 33.1333 17.2547 33.9911L17.6378 35.5488L19.3613 34.8899C20.3092 34.5267 21.7065 34.0309 22.4688 33.7856C23.2298 33.5417 24.5993 33.0418 25.5114 32.6746C28.2756 31.5623 32.7367 30.1915 34.0465 30.0523C34.7266 29.9807 36.12 29.7659 37.1421 29.5764C47.5081 27.6593 61.7148 28.232 70.7802 30.9339C72.0808 31.321 73.6518 31.789 74.2696 31.9746C76.1893 32.5473 81.5758 34.6805 82.0199 35.0437C82.2532 35.2333 82.4428 35.289 82.4428 35.167C82.4428 35.045 82.7239 35.0954 83.0686 35.2797C83.6267 35.578 83.7381 35.407 84.0973 33.6848C84.3187 32.6242 84.7085 30.8438 84.9631 29.7275C85.2189 28.6125 85.5901 26.9394 85.7903 26.0088C85.9905 25.0794 86.6202 22.363 87.1903 19.9713C88.4312 14.7731 88.4232 14.7585 85.8142 17.174C84.682 18.2214 83.6055 19.0791 83.4212 19.0791C83.2369 19.0791 82.7438 19.449 82.3248 19.9011C81.9059 20.3545 81.3902 20.6156 81.1767 20.4844C80.7856 20.2431 79.4002 14.4973 79.4002 13.1146C79.4002 11.6099 78.6379 11.9638 76.0845 14.6538C74.6541 16.1598 73.3111 17.3914 73.1003 17.3914C72.6668 17.3888 71.5028 14.6379 70.9221 12.2436C70.3321 9.80686 68.496 9.17978 68.0426 11.2599C67.9365 11.7491 67.6422 12.6055 67.389 13.1623C66.7579 14.549 65.3115 18.6973 65.0517 19.8626C64.5307 22.1986 63.6477 20.7867 62.3419 15.5288C61.4855 12.0765 61.455 11.9506 61.1129 10.304C60.6409 8.02374 60.4288 8.03169 57.6832 10.4353C54.5956 13.1398 54.7321 13.1358 53.7405 10.5426C51.0081 3.40617 50.6554 3.01773 49.4517 5.80974Z" fill="#7E839D"/>
<path d="M44.4112 32.951C43.2949 33.1194 41.3235 33.3302 40.0296 33.419C38.7344 33.5092 37.2137 33.7173 36.649 33.8844C36.0829 34.0501 34.7081 34.3722 33.5931 34.5989C32.4768 34.827 30.8515 35.3003 29.9805 35.6529C29.1095 36.0042 28.1615 36.2919 27.8739 36.2919C27.3422 36.2919 23.5546 37.5103 20.276 38.7366L18.4531 39.4193L18.6507 45.2089C18.9158 53.0122 20.1739 60.0638 22.026 64.1378C23.3478 67.0452 27.0572 74.3182 27.3064 74.4932C27.439 74.586 28.2954 75.7169 29.2076 77.0068C30.121 78.2968 31.9373 80.4869 33.2445 81.8736C34.5516 83.2617 36.0378 84.8406 36.5469 85.3829C37.0798 85.9516 37.6393 86.2671 37.8673 86.1266C38.0993 85.9834 38.1709 86.0298 38.0397 86.2406C37.7122 86.7709 40.9205 89.433 47.0521 93.7205L50.031 95.8032L51.2772 95.2265C52.595 94.6167 58.6987 90.5957 60.1305 89.3946C66.0924 84.3939 71.6513 78.5367 72.7132 76.1371C72.9492 75.6055 73.2952 75.164 73.4821 75.1587C74.2205 75.1349 78.8235 66.2153 79.843 62.8293C82.1087 55.3057 82.5741 52.2525 82.5953 44.7555L82.6125 39.1887L77.5415 37.4864C74.7522 36.5504 72.281 35.6622 72.0516 35.5137C71.8209 35.3652 70.9075 35.1584 70.0232 35.0563C69.1376 34.9542 67.1252 34.5751 65.5502 34.2145C63.9765 33.8539 61.7851 33.484 60.6807 33.3925C59.5777 33.2997 58.5675 33.1592 58.4362 33.0783C57.9325 32.7668 46.3335 32.662 44.4112 32.951ZM63.7883 40.3513C67.4937 41.0142 70.0206 41.6479 74.2444 42.9737L76.0196 43.5318L76.013 46.7573C76.0037 52.2008 74.6275 59.1464 72.7583 63.2019C72.3208 64.1498 71.9628 65.1003 71.9628 65.3151C71.9628 66.4486 70.4448 64.9638 68.2123 61.6468C66.5352 59.157 66.4411 59.0006 63.7207 54.1802C62.6282 52.2446 61.2972 49.9617 60.7629 49.1092C60.2286 48.2554 59.7925 47.4016 59.7925 47.2107C59.7925 47.0198 59.4982 46.4882 59.1376 46.0308C58.777 45.5721 58.3845 44.8058 58.2639 44.3272C58.1432 43.85 57.7535 43.1447 57.3982 42.7629C57.0416 42.3797 56.7499 41.9011 56.7499 41.6983C56.7499 41.4955 56.5179 40.8816 56.2355 40.3354L55.7211 39.3411L57.78 39.4923C58.9122 39.5758 61.6154 39.9616 63.7883 40.3513ZM44.9176 40.0133C44.9176 40.5595 39.8944 50.3567 37.7533 53.9866C36.6728 55.8175 35.7899 57.3818 35.7899 57.4627C35.7899 57.8286 30.3358 65.7035 30.0826 65.7035C29.6862 65.7035 28.0528 61.9888 27.1089 58.9422C26.153 55.8599 25.2356 49.0761 25.3762 46.1263L25.4796 43.964L27.6763 43.1407C33.8079 40.8458 44.9176 38.8294 44.9176 40.0133ZM54.3901 49.8145C54.4868 49.9073 54.748 50.3634 54.9694 50.8287C55.1908 51.294 55.9067 52.5866 56.5603 53.7016C57.2152 54.8179 57.8542 55.9593 57.9815 56.2377C58.1075 56.5161 58.5078 57.1724 58.8698 57.6934C59.7845 59.0125 59.7965 59.0099 54.162 58.6121C50.7469 58.3708 48.0888 58.3655 45.9212 58.5936C44.1606 58.7792 42.5445 58.933 42.3298 58.9369C42.115 58.9396 42.9515 57.1472 44.1885 54.9531C45.4267 52.759 46.722 50.362 47.068 49.6276C47.414 48.8944 47.8263 48.0645 47.9841 47.7861C48.1432 47.5077 48.6178 46.5943 49.038 45.7577C50.8159 42.2259 50.5865 42.2007 52.5049 46.1395C53.4448 48.0672 54.2933 49.7217 54.3901 49.8145ZM46.0299 64.9001C46.1453 65.0155 45.8682 65.6001 45.4121 66.198C44.9561 66.7959 44.683 67.3846 44.8063 67.5079C44.9296 67.6312 44.8659 67.7319 44.6657 67.7319C44.1739 67.7319 41.5184 71.6574 41.8114 71.9504C41.94 72.079 41.8618 72.1321 41.6391 72.0698C41.1101 71.9239 38.4281 75.465 38.7158 75.9303C38.8417 76.1332 38.7768 76.1888 38.5673 76.0602C38.3645 75.9343 38.0569 76.0841 37.8832 76.393C37.4603 77.1487 37.0785 76.8544 35.1084 74.2519C33.7376 72.441 33.5123 71.961 33.8901 71.6561C34.1446 71.4506 35.1986 69.9671 36.2327 68.3603L38.1113 65.4397L41.2612 65.1136C45.5367 64.6695 45.7886 64.6588 46.0299 64.9001ZM59.286 65.1931C61.3303 65.4662 63.0909 65.6929 63.1983 65.6969C63.3044 65.7009 64.1316 66.8066 65.0345 68.1548C65.9373 69.5031 66.9621 70.9283 67.3108 71.3234C67.8344 71.9173 67.8676 72.1215 67.5003 72.5059C67.2564 72.7631 66.457 73.7707 65.7225 74.7464C63.9447 77.1089 63.7366 76.9843 59.7872 71.1802C58.8127 69.7484 57.6713 68.1973 57.2523 67.7319C56.5762 66.9829 55.2319 64.6854 55.4732 64.692C55.5249 64.6933 57.2404 64.9187 59.286 65.1931ZM52.9079 71.8735C53.9817 73.4074 56.0419 76.1424 57.4883 77.9534L60.1173 81.2439L59.1097 81.989C58.5556 82.3986 58.1021 82.9422 58.1021 83.1981C58.1021 83.4526 57.9656 83.5772 57.7999 83.4738C57.5241 83.3041 56.5484 83.9299 51.9083 87.2548L50.3757 88.3525L48.9134 87.2548C48.1087 86.6503 46.8426 85.7435 46.1002 85.237C43.214 83.2749 41.3222 81.3022 41.8764 80.8369C43.0192 79.8757 46.4754 75.4385 49.1229 71.5355C51.1168 68.5937 50.5799 68.5459 52.9079 71.8735Z" fill="#7E839D"/>
</svg>
