<svg width="101" height="100" viewBox="0 0 101 100" fill="none" xmlns="http://www.w3.org/2000/svg">
<path d="M46.9286 1.00107C45.9715 2.77787 45.4827 2.94617 42.0516 2.66797C38.498 2.38062 36.9238 2.44358 36.3789 2.89579C35.6622 3.48997 35.9518 3.65826 37.9508 3.80824C40.3172 3.98798 41.2697 4.39096 41.9165 5.48658C43.4002 7.99723 40.6446 9.6916 38.0652 7.85527C36.3514 6.63486 34.1705 6.55473 31.8888 7.62745C31.2076 7.94801 30.2436 8.08424 28.974 8.03959C25.6047 7.92281 24.4301 8.85472 24.1118 11.8989C23.9871 13.0929 23.8004 13.6642 23.5348 13.6642C22.8456 13.6642 19.9091 15.8864 19.1798 16.9579C17.7385 19.0805 17.6824 21.8132 19.0219 24.7578C19.8473 26.5735 19.7969 26.8632 18.462 27.9359C14.9954 30.7213 15.1362 35.9235 18.7654 39.1187C19.9824 40.1892 20.683 41.1005 21.1925 42.2774C21.7328 43.523 22.1324 44.0233 22.8113 44.3038C23.5989 44.63 23.686 44.7754 23.4971 45.4463C22.4484 49.1774 23.6871 52.5192 27.6757 56.7242C31.8453 61.1204 33.0176 62.6133 33.2317 63.8028C33.479 65.1743 33.8121 65.6071 34.4842 65.4308C35.8408 65.0759 36.7761 73.7687 35.716 76.8678C35.1962 78.387 33.1035 81.849 31.045 84.5944C27.725 89.0238 27.9059 89.6363 33.0416 91.3444C34.5334 91.8401 36.0904 92.3061 36.5002 92.3805C36.9101 92.4549 38.419 92.9689 39.8535 93.523C41.288 94.0771 42.6458 94.5305 42.8713 94.5305C43.0957 94.5305 44.4294 94.9312 45.8342 95.4212C47.2389 95.9123 49.69 96.645 51.2825 97.0503C52.875 97.4567 54.8224 98.0429 55.6112 98.3531C61.5678 100.701 63.2141 100.574 63.545 97.7418C64.1449 92.5968 64.5055 90.6323 65.7763 85.5721C67.418 79.0384 67.6011 78.624 69.6012 76.9594C74.9007 72.5448 75.9757 71.0886 75.9757 68.3261C75.9757 66.3306 76.1738 65.7914 77.5201 64.1108C78.31 63.125 78.373 62.8812 78.2459 61.3379C78.1681 60.406 78.1967 59.4478 78.3078 59.2062C78.4199 58.9658 78.792 58.177 79.1355 57.4546C80.5814 54.4082 80.657 53.8999 80.5814 47.6376L80.5093 41.7061L81.74 40.4525C82.9146 39.255 82.965 39.1313 82.8391 37.7438C82.5597 34.6664 82.4326 27.3715 82.6593 27.5123C82.9867 27.7149 84.6651 25.5775 85.2192 24.2518C85.8054 22.8493 85.605 20.7268 84.7773 19.5648C84.4304 19.0759 84.0618 18.2608 83.9599 17.7525C83.7446 16.6717 83.2855 17.1125 83.2787 18.4085C83.273 19.4308 82.1121 19.4869 78.7497 18.6271C77.4938 18.3054 76.421 18.0433 76.3672 18.0433C76.3123 18.0433 76.2676 18.634 76.2676 19.3564C76.2676 21.503 74.1382 20.1681 73.757 17.7822C73.5337 16.3878 73.0632 16.2573 72.2023 17.3529C70.7815 19.1583 71.7123 21.6988 74.2264 22.8745C78.926 25.0749 79.6083 25.4928 79.8098 26.2907C79.9208 26.7315 79.9907 27.0933 79.9643 27.0933C79.938 27.0933 79.1996 26.8208 78.3226 26.4865C76.4852 25.7881 70.4198 24.3193 68.1667 24.0262L66.6337 23.827V24.8769C66.6337 25.4539 66.6933 25.9255 66.7654 25.9255C70.2125 25.9255 80.7635 31.0018 81.3851 32.9583C81.6576 33.817 81.6461 33.8193 78.3707 33.5353C74.2607 33.1781 74.2241 33.1942 74.2241 35.3167C74.2241 37.6636 75.9047 44.8487 77.3037 48.4836C77.8567 49.9204 77.8487 49.9959 77.037 50.8706C76.2127 51.7602 75.9791 51.8105 76.1772 51.0561C76.3054 50.5649 76.1165 50.4768 74.6168 50.3302C67.8461 49.6674 67.7637 49.6502 66.7471 48.6645C65.4969 47.4532 64.8798 47.8379 64.8867 49.8265C64.8936 51.8575 66.0167 52.7836 68.4712 52.7836C69.3757 52.7836 69.908 52.9531 70.2732 53.3572C71.3597 54.557 73.2658 55.0058 74.0695 54.2513L74.7736 53.5896L75.3735 54.573C76.7244 56.7883 74.4656 57.7431 70.8937 56.4678L68.8765 55.7477L67.4523 56.3098C65.7408 56.9841 64.7871 57.0219 64.2983 56.4323C63.8197 55.8564 62.2868 55.8633 62.0647 56.4437C61.6376 57.5542 62.834 58.1129 65.3206 57.9641C67.4569 57.8359 67.7981 57.8954 69.3253 58.6613C71.1799 59.5898 72.3671 59.7145 73.2201 59.07C74.0856 58.4151 74.5069 58.5342 74.9362 59.5554C75.6254 61.1925 74.3031 62.1256 71.2944 62.1256C69.141 62.1256 69.0494 62.5034 71.0906 62.9602C73.3632 63.4696 74.3649 64.1932 74.9625 65.757C75.5853 67.3873 75.5315 67.4594 74.0672 66.9626C71.4787 66.0856 71.0655 66.0902 70.9613 66.9969C70.7598 68.7485 65.9903 69.8716 63.7258 68.7005C61.9055 67.7582 60.3005 64.1245 60.5867 61.5887C60.6966 60.6075 60.5878 59.9447 60.1871 59.1581C59.8837 58.564 59.5185 57.0505 59.3766 55.7957C59.0572 52.9703 58.6782 52.0715 56.5889 49.1728C53.294 44.6037 51.7771 39.1817 53.3066 37.4415C53.8321 36.8428 54.0645 36.7214 54.0713 37.0409C54.1091 38.9447 55.9134 39.0512 60.5775 37.4244C63.1202 36.5371 65.1741 36.7329 65.1741 37.8617C65.1741 38.1514 65.4374 38.6265 65.7579 38.9161C66.5891 39.6694 66.4803 40.3414 65.466 40.725C64.3086 41.1612 64.3486 41.6912 65.5393 41.6832C68.8834 41.6615 71.2555 39.1222 71.5188 35.2847L71.6711 33.0556L70.5045 33.1667C69.0288 33.3075 63.7579 32.2703 61.1259 31.3201C58.5843 30.4042 58.3977 30.411 56.4835 31.4918C55.6112 31.9841 54.8395 32.3287 54.7697 32.2588C54.5819 32.0711 56.5499 29.5192 58.2741 27.7149L59.7738 26.1465L56.5385 26.3297C51.6912 26.6056 50.6173 26.1213 52.7078 24.6021C55.2975 22.7211 55.3707 16.8755 52.8051 16.8755C52.6151 16.8755 51.4851 16.4096 50.2968 15.8394C48.6837 15.0667 47.8342 14.8262 46.9481 14.8938L45.7609 14.9831L46.7821 15.5647C48.3357 16.4485 51.4531 19.6071 51.4531 20.2975C51.4531 22.2792 48.6001 22.7337 47.7403 20.8894C47.5343 20.4486 47.2 19.7319 46.9985 19.2992C46.2818 17.7639 44.9916 17.3243 40.8701 17.211C36.5517 17.0919 36.1705 17.3758 39.3704 18.326C41.9566 19.0942 42.9354 19.8819 44.0894 22.1281C44.971 23.8442 46.4112 25.0497 47.5789 25.0497C48.9894 25.0497 48.0655 25.779 46.5428 25.8671C44.4535 25.9896 43.2457 25.3554 42.3149 23.6439C40.8415 20.9374 38.7396 19.8945 36.5151 20.768C35.8431 21.0325 35.273 21.2168 35.2501 21.179C35.226 21.1401 34.91 20.6157 34.5471 20.0135C33.7549 18.697 32.0777 18.5172 29.8796 19.5144C28.2276 20.2643 28.1806 20.1818 28.9397 17.8692C29.638 15.7421 29.5625 15.0735 28.4943 13.931C26.113 11.3837 30.6718 11.2051 35.5431 13.6551C39.9096 15.8509 42.4981 15.6173 43.3418 12.9498C43.9967 10.8811 45.1427 10.5067 48.7764 11.1742C51.8881 11.7443 62.1402 11.2681 62.8912 10.517C63.4522 9.95606 62.1253 7.65836 60.6016 6.549L59.19 5.52207L59.0148 6.53412C58.5889 9.01614 56.7079 9.73282 56.7079 7.41336C56.7079 4.74472 53.9305 1.93755 49.8835 0.515656C47.7163 -0.246811 47.5904 -0.226204 46.9286 1.00107ZM51.6248 4.0704C52.6311 4.55697 54.3724 6.77911 54.3724 7.57822C54.3724 9.8141 50.9471 10.5949 48.8852 8.83068C45.3579 5.81172 47.5045 2.0841 51.6248 4.0704ZM25.2349 18.9923C25.0838 21.1813 25.0941 21.1653 24.1656 20.5574C23.2475 19.9563 23.1719 18.5905 24.0111 17.7513C25.0769 16.6855 25.3746 16.9866 25.2349 18.9923ZM33.7606 25.9072C33.9919 27.6451 35.7469 29.4059 38.0698 30.2313C39.9703 30.9068 39.8501 31.1815 37.6588 31.1735C34.4315 31.1621 32.3147 29.6383 31.9712 27.0795C31.7732 25.6015 31.5076 25.6244 30.752 27.186C29.3541 30.0722 30.7176 34.1455 33.3759 35.0316C34.341 35.3533 33.171 35.8514 31.4503 35.8514C29.1663 35.8514 28.4039 36.5005 27.6208 39.1153C26.7782 41.9293 25.986 40.9871 25.5772 36.6848C25.2155 32.8851 27.2338 27.9576 29.8029 26.3629C30.3203 26.0423 31.1675 25.4951 31.6839 25.1482C33.1928 24.1327 33.5431 24.2609 33.7606 25.9072ZM40.0561 25.4527C40.5106 26.83 41.1495 27.3108 43.1495 27.7813C44.8473 28.1809 44.8668 28.1969 44.0631 28.5175C42.2325 29.2467 38.9159 28.8083 38.3686 27.7642C37.8695 26.8116 37.6588 25.3417 38.0217 25.3417C38.2061 25.3417 38.5552 25.1448 38.7956 24.9032C39.4471 24.2529 39.6955 24.3605 40.0561 25.4527ZM48.8188 29.7081C49.4965 30.9732 49.0913 32.2279 47.3396 34.2909C46.9092 34.797 46.4867 35.3877 46.3997 35.6041C46.2726 35.9235 46.1845 35.9143 45.9326 35.5594C45.4003 34.8061 45.5823 33.5628 46.4902 31.7643C46.9721 30.8094 47.366 29.6921 47.366 29.2811C47.366 28.4121 48.267 28.6777 48.8188 29.7081ZM43.1243 36.6871C43.2319 37.1805 43.1083 38.0357 42.8186 38.8005C41.7471 41.6214 42.6435 44.6094 44.5611 44.6094C45.5239 44.6094 46.4936 46.7606 45.9612 47.712C45.7082 48.1642 45.6166 48.1001 45.2411 47.2002C44.7969 46.139 44.2016 45.7898 41.9932 45.2998C39.9909 44.8556 38.6869 41.1737 39.9771 39.6065C40.1569 39.3878 40.5393 38.1994 40.8255 36.9653L41.3452 34.7225L42.1432 35.2904C42.5828 35.6029 43.0247 36.2314 43.1243 36.6871ZM48.0895 39.8618C48.228 40.6002 48.7535 41.4451 49.6923 42.4365C52.1079 44.9918 52.1801 45.2574 51.7462 50.0028C51.0261 57.8839 51.555 59.418 54.883 59.0814C56.9724 58.8708 57.0502 58.9521 55.7898 60.0282C50.8406 64.2562 45.0053 59.2635 48.1422 53.4843C49.864 50.3119 50.0369 49.8116 50.0484 47.9833C50.0598 45.8779 49.5698 44.7331 48.1788 43.618C47.6522 43.1955 47.0569 42.7159 46.8588 42.5533C46.0013 41.8515 46.054 39.8331 46.9515 38.9344C47.5663 38.3196 47.8422 38.544 48.0895 39.8618ZM34.1052 39.9075C35.4664 40.5258 36.4396 42.1526 36.1465 43.3203C35.9106 44.2603 35.621 44.2087 35.1482 43.1429C34.1109 40.7982 30.1463 41.01 29.6609 43.4348C29.2591 45.4486 27.061 45.5402 27.0999 43.5436C27.1571 40.5303 31.0393 38.5154 34.1052 39.9075ZM31.2431 50.7378C32.0525 52.1563 33.5042 53.0115 34.2804 52.5272C35.5958 51.7063 37.7321 52.5112 37.7321 53.8289C37.7321 55.1947 34.159 55.5015 32.1338 54.3109C31.1435 53.7281 29.3758 51.4259 29.1125 50.3749C28.7588 48.9667 30.3902 49.2449 31.2431 50.7378ZM40.6835 50.1883C41.4151 50.9198 43.0671 51.4304 43.8742 51.174C44.853 50.8637 44.9664 51.8872 44.0413 52.684C41.9279 54.5009 37.9725 52.4333 39.1952 50.1505C39.589 49.4132 39.9165 49.4212 40.6835 50.1883ZM40.253 64.6065C42.4832 68.9019 46.7054 74.7807 50.9322 79.4757C55.9684 85.0706 56.2637 88.1022 52.4102 94.6759C51.6363 95.997 50.4445 93.9684 50.1067 90.7525C49.7587 87.4416 47.785 83.4713 44.8462 80.1638C42.2142 77.2032 40.9022 74.0755 39.7894 68.1097C39.2799 65.3804 38.7956 62.8194 38.7121 62.4175C38.5083 61.4364 38.8827 61.9688 40.253 64.6065Z" fill="#7E839D"/>
<path d="M60.9576 2.54422C60.6611 3.02391 61.0961 3.63411 62.0612 4.09434C64.9978 5.49449 67.2382 8.56726 66.7254 10.4895C66.3441 11.9171 66.8627 12.0201 68.1163 10.7677C69.0116 9.87124 69.1742 8.98627 68.6808 7.68802C67.8278 5.44526 61.6903 1.35816 60.9576 2.54422Z" fill="#7E839D"/>
<path d="M74.224 9.25769C74.224 10.2125 74.1163 10.4289 73.6 10.5056C73.2577 10.5571 72.7895 10.8834 72.5605 11.2303C72.1518 11.8485 72.1678 11.8588 73.3024 11.7065C74.4014 11.5588 74.5022 11.6126 75.2578 12.7541C76.2183 14.2057 77.2818 14.3981 77.7363 13.2017C78.0592 12.3534 78.0386 12.3018 76.5926 10.3682C74.9257 8.14032 74.224 7.81175 74.224 9.25769Z" fill="#7E839D"/>
<path d="M54.946 15.0358C57.871 17.4022 57.7268 17.1469 57.7611 19.9895C57.8058 23.6084 60.1264 24.5712 61.3983 21.4984C62.9198 17.8269 60.7217 14.6946 56.4137 14.3912L53.9351 14.2172L54.946 15.0358Z" fill="#7E839D"/>
<path d="M68.3855 15.4159C68.1451 15.5716 67.5257 15.701 67.0094 15.7032C64.1725 15.717 65.1696 19.7709 68.4141 21.4149C70.4954 22.4693 71.4537 22.3525 70.0123 21.2191C69.0255 20.4429 68.5744 18.8665 68.7587 16.8332C68.8446 15.8933 68.8938 15.1262 68.8686 15.1285C68.8434 15.1308 68.6259 15.2602 68.3855 15.4159Z" fill="#7E839D"/>
</svg>
