<svg width="101" height="100" viewBox="0 0 101 100" fill="none" xmlns="http://www.w3.org/2000/svg">
<path d="M45.0517 13.5804C30.188 16.05 17.769 27.5998 14.7224 41.7883C12.4082 52.5634 14.9064 67.835 19.2077 69.2165C26.5457 71.5743 35.4754 68.5811 43.2225 61.1698C45.4472 59.0409 45.7742 58.056 43.7187 59.6775C34.0255 67.3202 20.6751 70.0659 19.6542 64.6255C19.1692 62.0427 23.4581 60.64 24.3919 63.0761C24.8371 64.2338 23.9766 64.8866 23.1261 64.0361C22.4483 63.3596 21.7445 63.4491 21.7445 64.2114C21.7445 65.5855 24.7476 66.0916 26.6601 65.0396C27.0083 64.8468 27.9521 64.7337 28.7554 64.7859C31.9376 64.9936 36.3484 63.2638 42.7997 59.2796C48.4341 55.7978 48.5224 57.2141 43.0273 62.9467C36.2961 69.9689 32.2423 71.9597 24.678 71.9622C19.5037 71.9647 19.5062 71.9622 21.594 74.2851C22.8139 75.6405 23.3984 76.0037 25.4788 76.6913C36.0611 80.1881 41.6432 79.0142 55.5159 70.373C67.2771 63.0475 72.3867 62.2591 80.8177 66.4696C82.1769 67.1486 83.4191 67.6224 83.5796 67.5241C83.837 67.365 84.5234 65.3666 84.5284 64.7623C84.5308 64.3656 79.4038 62.9244 76.2926 62.4468C71.5199 61.7144 63.697 63.1507 59.9926 65.44C58.524 66.3478 58.2106 66.2707 58.2106 64.9998C58.2106 63.6083 59.0612 62.7888 61.0122 62.3026C61.8255 62.0999 62.9757 61.651 63.5677 61.3041C68.5641 58.3806 76.8385 57.7712 79.369 60.1414C80.0082 60.7407 80.0927 60.7519 80.2793 60.267C80.6909 59.1951 78.6018 57.959 75.4569 57.4131C74.2034 57.1955 69.6447 57.8558 68.0431 58.4863C65.326 59.5582 65.5498 58.4552 68.288 57.2813C72.9027 55.3029 79.6277 55.1611 84.7795 56.9331C86.8301 57.6394 86.7766 57.668 87.0975 55.7157C91.0941 31.4274 69.2704 9.55765 45.0517 13.5804ZM48.0635 23.924C48.7897 25.3478 48.7773 25.3416 49.6788 24.7957C50.5257 24.2834 52.2666 26.1387 52.1186 27.3959C51.9905 28.4802 49.1988 29.9625 48.5547 29.2873C48.1754 28.8881 46.7093 25.6164 46.2592 24.1665C45.7095 22.3907 47.1806 22.193 48.0635 23.924ZM56.3366 30.7036C58.9778 31.696 58.989 32.0118 56.4013 32.4868C55.2162 32.7044 52.9754 33.2988 51.4222 33.8087C48.1095 34.8955 47.7464 34.8346 47.7464 33.1907C47.7464 30.159 51.7804 28.9913 56.3366 30.7036ZM66.5235 35.7523C67.8118 36.3405 68.3577 37.0965 68.3577 38.2953C68.3577 38.8897 68.5629 39.1135 69.2294 39.2453C69.7094 39.3411 71.0636 39.6196 72.2399 39.8659C73.4151 40.1108 74.4372 40.2526 74.5118 40.178C74.7394 39.9504 75.968 40.7313 75.968 41.1044C75.968 41.2984 75.4917 42.185 74.9098 43.0754C74.3278 43.9657 72.9201 46.1207 71.7811 47.8641C70.0228 50.5576 68.4534 53.639 67.6066 56.0626C67.481 56.4208 67.2149 56.5799 66.9252 56.468C63.1598 55.0231 56.4373 55.6971 51.957 57.9677C49.9823 58.9675 49.7709 58.9874 49.562 58.1903C49.3344 57.3211 50.1178 56.3549 51.2531 56.1049C52.7851 55.7692 52.3648 54.8651 50.6177 54.7408C48.5584 54.5928 42.6567 57.0575 40.4395 58.9911C39.3452 59.9461 35.5314 61.0765 32.8479 61.2406L30.1482 61.406L28.9581 60.3005C27.0904 58.5634 27.5505 55.4309 29.5401 56.3375C30.2166 56.6459 30.668 56.4345 33.6698 54.4013C43.8443 47.5097 56.165 43.9496 68.6897 44.2803C72.2138 44.3736 72.3245 44.3562 72.4202 43.6859C72.5508 42.762 70.887 42.4859 65.1867 42.4884C55.7932 42.4922 43.0944 46.7972 33.7382 53.1528C30.9751 55.028 30.8358 55.0852 30.4081 54.4995C29.5165 53.2821 30.7675 51.2938 33.7146 49.2457C35.3759 48.093 35.4182 47.7037 33.8738 47.7945C31.3096 47.945 32.4922 44.0602 35.514 42.4051C36.1108 42.0768 36.1096 42.0395 35.4344 40.4702C34.5552 38.4246 34.544 38.488 35.9181 37.5964L37.082 36.8416L37.6615 37.5579C38.6812 38.8151 38.721 39.7117 37.7933 40.4416C36.8719 41.1666 36.6853 41.7684 37.4775 41.465C37.9003 41.3021 37.9425 41.4004 37.7212 42.0296C37.4277 42.8602 37.3867 44.7454 37.6565 45.0153C37.7486 45.1073 39.5977 44.34 41.7651 43.3092C48.9651 39.8858 53.5312 38.8723 62.0953 38.7952C67.5407 38.7467 68.0344 38.6199 66.5484 37.6462C63.2568 35.4887 50.1365 37.6151 41.8808 41.6428C39.1388 42.9809 38.8677 42.997 38.8677 41.8219C38.8677 39.6259 43.6714 36.5892 48.6492 35.6404C52.8349 34.8408 64.6868 34.9167 66.5235 35.7523ZM60.3669 58.2338C61.0458 58.9128 60.7722 59.7895 59.5611 60.8141C58.9082 61.365 57.4732 62.7105 56.3714 63.8035C51.8351 68.3013 47.7153 71.6128 43.7311 73.9618C36.5597 78.191 28.5988 75.5212 35.1272 71.0768C37.4787 69.4764 38.675 69.3894 38.8118 70.812C39.058 73.3935 45.2196 70.3792 53.9603 63.4019C62.1152 56.8933 58.7864 58.0087 50.0507 64.7125C45.1699 68.458 42.6729 69.2004 42.6729 66.9049C42.6729 65.241 43.1106 64.4203 45.1624 62.2417C46.9021 60.3938 48.1045 59.8703 47.1682 61.3687C46.243 62.851 47.6357 63.0039 49.649 61.6411C53.8944 58.7648 59.2091 57.0761 60.3669 58.2338Z" fill="#7E839D"/>
<path d="M49.5653 25.906C49.3601 26.4445 49.865 27.729 50.2828 27.729C50.8188 27.729 50.9978 26.8871 50.6136 26.1684C50.2144 25.4248 49.7891 25.3178 49.5653 25.906Z" fill="#7E839D"/>
<path d="M47.1121 50.8163C47.1121 50.978 46.259 51.3498 45.217 51.642C43.3243 52.1742 39.4868 54.4872 39.2543 55.237C39.0553 55.8799 39.6696 55.7008 41.6543 54.5381C42.6814 53.9363 44.4733 53.1305 45.6348 52.75C47.6828 52.0772 48.3693 51.3 47.4292 50.7181C47.2551 50.6111 47.1121 50.6546 47.1121 50.8163Z" fill="#7E839D"/>
<path d="M80.0457 57.7889C82.3561 59.4577 82.9704 60.9238 81.6934 61.7222C81.135 62.0703 83.5847 63.2144 84.9427 63.2392C85.2448 63.2455 85.9574 61.5866 86.2583 60.1715C86.553 58.7912 83.3025 57.2045 80.2496 57.2368L79.2983 57.248L80.0457 57.7889Z" fill="#7E839D"/>
<path d="M63.8709 67.3386C60.8703 68.1482 53.4465 72.5154 47.9763 76.6874C44.3427 79.4592 38.1674 81.4389 33.0802 81.4625C29.4839 81.4787 29.3534 81.6229 31.8118 82.8627C39.2729 86.6256 41.939 85.9429 52.3671 77.6051C64.9913 67.5102 72.471 65.6487 78.5294 71.0953L80.1696 72.5701L80.9381 71.676C83.6527 68.52 71.2101 65.359 63.8709 67.3386Z" fill="#7E839D"/>
<path d="M65.98 71.7646C58.3684 73.7753 53.7525 83.1378 59.6356 84.6325C63.6247 85.6447 76.285 79.2692 76.285 76.2475C76.285 73.6883 69.6409 70.7984 65.98 71.7646ZM69.5128 73.7517C72.6477 76.6964 68.9781 82.2698 63.9045 82.2698C59.8445 82.2698 59.2662 78.4808 62.8438 75.3272C65.8656 72.6636 67.8552 72.1936 69.5128 73.7517Z" fill="#7E839D"/>
<path d="M67.2486 75.6109C67.0111 76.3558 66.2849 76.4503 66.0238 75.7688C65.6942 74.9096 64.3301 75.1869 64.1461 76.1494C63.8551 77.6677 64.3463 78.3852 65.5562 78.2086C67.4289 77.9363 68.8988 76.5634 68.4809 75.4754C68.2123 74.7753 67.4886 74.8549 67.2486 75.6109Z" fill="#7E839D"/>
<path d="M49.491 83.0271C48.9675 83.2559 48.1107 83.803 47.5885 84.242C47.0649 84.681 46.1497 85.3363 45.5541 85.6969C44.2546 86.4853 44.4386 86.5574 48.495 86.8459C54.7138 87.2899 56.0531 86.7253 54.4166 84.3465C53.1308 82.4775 51.6535 82.082 49.491 83.0271Z" fill="#7E839D"/>
</svg>
